<svg width="48" height="48" viewBox="0 0 48 48" fill="none" xmlns="http://www.w3.org/2000/svg">
<rect width="48" height="48" rx="24" fill="#121212"/>
<path d="M28.5 31.5L25.5 28.5H22.5L19.5 31.5H16.5C15.7044 31.5 14.9413 31.1839 14.3787 30.6213C13.8161 30.0587 13.5 29.2956 13.5 28.5V19.5C13.5 18.7044 13.8161 17.9413 14.3787 17.3787C14.9413 16.8161 15.7044 16.5 16.5 16.5H31.5C32.2956 16.5 33.0587 16.8161 33.6213 17.3787C34.1839 17.9413 34.5 18.7044 34.5 19.5V28.5C34.5 29.2956 34.1839 30.0587 33.6213 30.6213C33.0587 31.1839 32.2956 31.5 31.5 31.5H28.5ZM39 27C39 27.3978 38.842 27.7794 38.5607 28.0607C38.2794 28.342 37.8978 28.5 37.5 28.5C37.1022 28.5 36.7206 28.342 36.4393 28.0607C36.158 27.7794 36 27.3978 36 27V21C36 20.6022 36.158 20.2206 36.4393 19.9393C36.7206 19.658 37.1022 19.5 37.5 19.5C37.8978 19.5 38.2794 19.658 38.5607 19.9393C38.842 20.2206 39 20.6022 39 21V27ZM12 27C12 27.3978 11.842 27.7794 11.5607 28.0607C11.2794 28.342 10.8978 28.5 10.5 28.5C10.1022 28.5 9.72064 28.342 9.43934 28.0607C9.15804 27.7794 9 27.3978 9 27V21C9 20.6022 9.15804 20.2206 9.43934 19.9393C9.72064 19.658 10.1022 19.5 10.5 19.5C10.8978 19.5 11.2794 19.658 11.5607 19.9393C11.842 20.2206 12 20.6022 12 21V27Z" fill="#F9D908"/>
</svg>
