<svg width="60" height="23" viewBox="0 0 60 23" fill="none" xmlns="http://www.w3.org/2000/svg">
<path d="M4.78516 3H11.9852V5.4H7.42516V9.84H11.0492V12.24H7.42516V17.4H11.9852V19.8H4.78516V3Z" fill="#2D1912"/>
<path d="M12.3279 3H14.9919L16.7199 16.032H16.7679L18.4959 3H20.9199L18.3759 19.8H14.8719L12.3279 3Z" fill="#2D1912"/>
<path d="M21.708 3H28.908V5.4H24.348V9.84H27.972V12.24H24.348V17.4H28.908V19.8H21.708V3Z" fill="#2D1912"/>
<path d="M29.9467 3H33.8587C35.2187 3 36.2107 3.32 36.8347 3.96C37.4587 4.584 37.7707 5.552 37.7707 6.864V7.896C37.7707 9.64 37.1947 10.744 36.0427 11.208V11.256C36.6827 11.448 37.1307 11.84 37.3867 12.432C37.6587 13.024 37.7947 13.816 37.7947 14.808V17.76C37.7947 18.24 37.8107 18.632 37.8427 18.936C37.8747 19.224 37.9547 19.512 38.0827 19.8H35.3947C35.2987 19.528 35.2347 19.272 35.2027 19.032C35.1707 18.792 35.1547 18.36 35.1547 17.736V14.664C35.1547 13.896 35.0267 13.36 34.7707 13.056C34.5307 12.752 34.1067 12.6 33.4987 12.6H32.5867V19.8H29.9467V3ZM33.5467 10.2C34.0747 10.2 34.4667 10.064 34.7227 9.792C34.9947 9.52 35.1307 9.064 35.1307 8.424V7.128C35.1307 6.52 35.0187 6.08 34.7947 5.808C34.5867 5.536 34.2507 5.4 33.7867 5.4H32.5867V10.2H33.5467Z" fill="#2D1912"/>
<path d="M39.1464 3H41.7864V19.8H39.1464V3Z" fill="#2D1912"/>
<path d="M45.3236 3H48.8996L51.6356 19.8H48.9956L48.5156 16.464V16.512H45.5156L45.0356 19.8H42.5876L45.3236 3ZM48.2036 14.232L47.0276 5.928H46.9796L45.8276 14.232H48.2036Z" fill="#2D1912"/>
<path d="M52.6708 17.256H55.2148V19.8H52.6708V17.256Z" fill="#FD5F38"/>
</svg>
