<svg width="60" height="60" viewBox="0 0 60 60" fill="none" xmlns="http://www.w3.org/2000/svg">
<path d="M20 0H40V20.0669H24.8C22.149 20.0669 20 17.9107 20 15.2508V0Z" fill="#E0FD0A"/>
<path d="M40 15.2508C40 17.9107 42.149 20.0669 44.8 20.0669H40V15.2508Z" fill="#E0FD0A"/>
<path d="M40 60H20V39.9331H35.2C37.851 39.9331 40 42.0893 40 44.7492V60Z" fill="#E0FD0A"/>
<path d="M20 44.7492C20 42.0893 17.851 39.9331 15.2 39.9331H20V44.7492Z" fill="#E0FD0A"/>
<path d="M60 20.0669V40.1338H40V24.8829C40 22.2231 42.149 20.0669 44.8 20.0669H60Z" fill="#E0FD0A"/>
<path d="M44.8 40.1338C42.149 40.1338 40 42.29 40 44.9498V40.1338H44.8Z" fill="#E0FD0A"/>
<path d="M0 39.9331V19.8662H20V35.1171C20 37.7769 17.851 39.9331 15.2 39.9331H0Z" fill="#E0FD0A"/>
<path d="M15.2 19.8662C17.851 19.8662 20 17.71 20 15.0502V19.8662H15.2Z" fill="#E0FD0A"/>
</svg>
