<svg width="260" height="140" viewBox="0 0 260 140" fill="none" xmlns="http://www.w3.org/2000/svg">
<rect width="60" height="60" rx="30" fill="#0D0D0D"/>
<rect x="40" y="80" width="60" height="60" rx="30" fill="#0D0D0D"/>
<rect x="80" width="60" height="60" rx="30" fill="#0D0D0D"/>
<rect x="120" y="80" width="60" height="60" rx="30" fill="#0D0D0D"/>
<rect x="160" width="60" height="60" rx="30" fill="#0D0D0D"/>
<rect x="200" y="80" width="60" height="60" rx="30" fill="#0D0D0D"/>
<path d="M26.5 19.5H30V26.5H26.5C25.5717 26.5 24.6815 26.1313 24.0251 25.4749C23.3687 24.8185 23 23.9283 23 23C23 22.0717 23.3687 21.1815 24.0251 20.5251C24.6815 19.8687 25.5717 19.5 26.5 19.5Z" fill="#F4511E"/>
<path d="M33.5 26.5H30V19.5H33.5C34.4283 19.5 35.3185 19.8687 35.9749 20.5251C36.6313 21.1815 37 22.0717 37 23C37 23.9283 36.6313 24.8185 35.9749 25.4749C35.3185 26.1313 34.4283 26.5 33.5 26.5Z" fill="#FF8A65"/>
<path d="M30 30C30 31.933 31.567 33.5 33.5 33.5C35.433 33.5 37 31.933 37 30C37 28.067 35.433 26.5 33.5 26.5C31.567 26.5 30 28.067 30 30Z" fill="#29B6F6"/>
<path d="M26.5 26.5H30V33.5H26.5C25.5717 33.5 24.6815 33.1313 24.0251 32.4749C23.3687 31.8185 23 30.9283 23 30C23 29.0717 23.3687 28.1815 24.0251 27.5251C24.6815 26.8687 25.5717 26.5 26.5 26.5Z" fill="#7C4DFF"/>
<path d="M26.5 33.5H30V37C30 37.9283 29.6313 38.8185 28.9749 39.4749C28.3185 40.1313 27.4283 40.5 26.5 40.5C25.5717 40.5 24.6815 40.1313 24.0251 39.4749C23.3687 38.8185 23 37.9283 23 37C23 36.0717 23.3687 35.1815 24.0251 34.5251C24.6815 33.8687 25.5717 33.5 26.5 33.5Z" fill="#00E676"/>
<g clip-path="url(#clip0_1022_31)">
<path d="M57.7601 97.2055L73.9473 96.0635C75.9357 95.9005 76.4466 96.0104 77.6967 96.8785L82.8639 100.356C83.7163 100.954 84 101.117 84 101.768V120.838C84 122.033 83.5455 122.74 81.9551 122.848L63.1575 123.935C61.9639 123.989 61.3955 123.826 60.7704 123.065L56.9653 118.339C56.2828 117.469 56 116.818 56 116.057V99.1057C56 98.1286 56.4545 97.3136 57.7601 97.2055Z" fill="white"/>
<path d="M73.9473 96.0635L57.7601 97.2055C56.4545 97.3136 56 98.1286 56 99.1057V116.057C56 116.818 56.2827 117.469 56.9653 118.339L60.7704 123.065C61.3955 123.826 61.9639 123.989 63.1575 123.935L81.9551 122.848C83.5446 122.74 84 122.033 84 120.838V101.768C84 101.15 83.7445 100.972 82.9927 100.445L82.863 100.356L77.6967 96.8785C76.4466 96.0104 75.9358 95.9005 73.9473 96.0635ZM63.5826 101.456C62.0478 101.555 61.6996 101.577 60.8279 100.9L58.6114 99.2156C58.3861 98.9977 58.4992 98.7256 59.0668 98.6716L74.628 97.5855C75.9347 97.4766 76.6153 97.9115 77.1263 98.2916L79.7952 100.139C79.9093 100.194 80.1931 100.519 79.8517 100.519L63.7816 101.443L63.5826 101.456ZM61.7933 120.675V104.486C61.7933 103.779 62.0204 103.453 62.7011 103.398L81.1584 102.366C81.7845 102.312 82.0673 102.692 82.0673 103.398V119.479C82.0673 120.186 81.9532 120.784 80.9313 120.838L63.2686 121.816C62.2467 121.87 61.7933 121.545 61.7933 120.675ZM79.2287 105.354C79.3418 105.843 79.2287 106.332 78.7167 106.388L77.8655 106.549V118.502C77.1263 118.882 76.4457 119.099 75.877 119.099C74.9684 119.099 74.7411 118.827 74.0604 118.013L68.4935 109.646V117.741L70.2544 118.122C70.2544 118.122 70.2544 119.1 68.8337 119.1L64.9166 119.317C64.8025 119.099 64.9166 118.556 65.3136 118.448L66.3364 118.177V107.474L64.9167 107.364C64.8025 106.875 65.0862 106.169 65.882 106.114L70.0849 105.844L75.8772 114.318V106.821L74.4008 106.659C74.2867 106.06 74.7411 105.625 75.3086 105.572L79.2287 105.354Z" fill="black"/>
</g>
<path d="M99.5996 17.1667H118.75V26.0567H111.79L120.4 34.6667H111.167V43.8986L102.286 35.0191L102.281 25.7791L108.217 25.7837L99.5996 17.1667Z" fill="white"/>
<path fill-rule="evenodd" clip-rule="evenodd" d="M151.702 106.642L160.471 97.3499H163.377L163.365 97.3627L152.993 108.357L162.489 120.96C162.604 121.111 162.675 121.291 162.696 121.48C162.717 121.669 162.687 121.861 162.608 122.034C162.53 122.207 162.406 122.356 162.25 122.465C162.093 122.573 161.911 122.638 161.721 122.651H155.776C155.625 122.641 155.478 122.598 155.346 122.526C155.213 122.454 155.097 122.354 155.007 122.233L148.326 113.365L139.608 122.651H136.625L147.034 111.65L137.538 99.0474C137.42 98.8904 137.348 98.7035 137.329 98.5076C137.311 98.3117 137.348 98.1147 137.436 97.9387C137.524 97.7627 137.659 97.6146 137.826 97.5112C137.994 97.4078 138.186 97.3531 138.383 97.3534H144.176C144.508 97.3534 144.821 97.5097 145.02 97.7745L151.702 106.642ZM150.812 108.976C150.782 108.941 150.755 108.905 150.73 108.867L143.648 99.4685H140.504L156.379 120.539H159.524L150.812 108.976Z" fill="white"/>
<g clip-path="url(#clip1_1022_31)">
<path d="M181.963 33.6572C181.963 35.2607 180.655 36.5703 179.052 36.5703C177.448 36.5703 176.139 35.2607 176.139 33.6572C176.139 32.0538 177.448 30.7441 179.052 30.7441H181.963L181.963 33.6572ZM183.43 33.6572C183.43 32.0538 184.74 30.7441 186.344 30.7441C187.947 30.7441 189.257 32.0536 189.257 33.6572V40.9493C189.257 42.5527 187.947 43.8624 186.344 43.8624C184.74 43.8624 183.43 42.5527 183.43 40.9493V33.6572Z" fill="#DE1C59"/>
<path d="M186.344 21.9619C184.74 21.9619 183.43 20.6542 183.43 19.0506C183.43 17.4469 184.74 16.1377 186.344 16.1377C187.947 16.1377 189.257 17.4474 189.257 19.0508V21.9621L186.344 21.9619ZM186.344 23.4295C187.947 23.4295 189.257 24.7392 189.257 26.3426C189.257 27.946 187.947 29.2557 186.344 29.2557H179.052C177.448 29.2557 176.139 27.9463 176.139 26.3426C176.139 24.7392 177.448 23.4295 179.052 23.4295H186.344Z" fill="#35C5F0"/>
<path d="M198.038 26.3426C198.038 24.7392 199.346 23.4295 200.949 23.4295C202.553 23.4295 203.862 24.7392 203.862 26.3426C203.862 27.946 202.553 29.2557 200.949 29.2557H198.038V26.3426ZM196.57 26.3426C196.57 27.946 195.261 29.2557 193.657 29.2557C192.054 29.2557 190.744 27.9463 190.744 26.3426V19.0506C190.744 17.4471 192.054 16.1377 193.657 16.1377C195.261 16.1377 196.57 17.4474 196.57 19.0508V26.3426Z" fill="#2EB57D"/>
<path d="M193.657 38.0379C195.261 38.0379 196.57 39.3456 196.57 40.9493C196.57 42.5529 195.261 43.8624 193.657 43.8624C192.054 43.8624 190.744 42.5527 190.744 40.9493V38.0379H193.657ZM193.657 36.5703C192.054 36.5703 190.744 35.2607 190.744 33.6572C190.744 32.0538 192.054 30.7441 193.657 30.7441H200.949C202.553 30.7441 203.862 32.0536 203.862 33.6572C203.862 35.2607 202.553 36.5703 200.949 36.5703H193.657Z" fill="#EBB02E"/>
</g>
<g clip-path="url(#clip2_1022_31)">
<path d="M239.719 100.835C237.882 99.9664 235.94 99.3494 233.942 99C233.693 99.4547 233.403 100.066 233.202 100.553C231.048 100.225 228.914 100.225 226.8 100.553C226.6 100.066 226.302 99.4547 226.051 99C224.052 99.3495 222.107 99.9681 220.27 100.839C216.614 106.423 215.623 111.868 216.119 117.236C218.544 119.067 220.893 120.178 223.204 120.906C223.778 120.108 224.285 119.263 224.721 118.38C223.892 118.061 223.092 117.667 222.332 117.205C222.532 117.055 222.727 116.898 222.917 116.736C227.525 118.914 232.53 118.914 237.083 116.736C237.274 116.897 237.469 117.053 237.668 117.205C236.907 117.669 236.106 118.063 235.274 118.382C235.713 119.269 236.219 120.115 236.792 120.908C239.104 120.181 241.456 119.069 243.881 117.236C244.462 111.014 242.888 105.618 239.719 100.835ZM225.349 113.935C223.966 113.935 222.831 112.63 222.831 111.041C222.831 109.452 223.941 108.144 225.349 108.144C226.756 108.144 227.89 109.449 227.866 111.041C227.868 112.63 226.756 113.935 225.349 113.935ZM234.651 113.935C233.268 113.935 232.134 112.63 232.134 111.041C232.134 109.452 233.244 108.144 234.651 108.144C236.058 108.144 237.193 109.449 237.168 111.041C237.168 112.63 236.058 113.935 234.651 113.935Z" fill="#5865F2"/>
</g>
<defs>
<clipPath id="clip0_1022_31">
<rect width="28" height="28" fill="white" transform="translate(56 96)"/>
</clipPath>
<clipPath id="clip1_1022_31">
<rect width="28" height="28" fill="white" transform="translate(176 16)"/>
</clipPath>
<clipPath id="clip2_1022_31">
<rect width="28" height="22" fill="white" transform="translate(216 99)"/>
</clipPath>
</defs>
</svg>
