<svg width="184" height="70" viewBox="0 0 184 70" fill="none" xmlns="http://www.w3.org/2000/svg">
<rect x="9.69922" y="1.30005" width="164.6" height="49.4" rx="12.1" fill="#121212" stroke="#404040"/>
<rect x="16.4004" y="8" width="54" height="36" rx="10.8" fill="black"/>
<path fill-rule="evenodd" clip-rule="evenodd" d="M44.2204 17.3708C44.3422 17.4128 44.4478 17.4918 44.5226 17.5968C44.5973 17.7017 44.6375 17.8273 44.6374 17.9562V24.7624H48.3499C48.466 24.7625 48.5797 24.7951 48.6781 24.8567C48.7765 24.9183 48.8556 25.0064 48.9063 25.1108C48.9571 25.2152 48.9774 25.3318 48.965 25.4473C48.9526 25.5627 48.908 25.6723 48.8362 25.7636L42.03 34.4261C41.9505 34.5272 41.8414 34.601 41.718 34.6372C41.5945 34.6735 41.4629 34.6703 41.3413 34.6283C41.2197 34.5862 41.1143 34.5073 41.0397 34.4025C40.965 34.2978 40.9249 34.1723 40.9249 34.0437V27.2374H37.2124C37.0963 27.2374 36.9826 27.2047 36.8842 27.1431C36.7858 27.0815 36.7067 26.9935 36.6559 26.8891C36.6052 26.7846 36.5849 26.668 36.5973 26.5526C36.6097 26.4372 36.6543 26.3276 36.7261 26.2363L43.5323 17.5738C43.6117 17.4727 43.7206 17.3988 43.8439 17.3624C43.9672 17.3261 44.0988 17.329 44.2204 17.3708Z" fill="#02DD41"/>
<path d="M78.0927 21.6916V28.5172H81.5271V29.5H77.0343V21.6916H78.0927ZM83.9405 29.6296C82.8065 29.6296 82.1369 28.9924 82.1369 28.0312C82.1369 27.0592 82.8605 26.4544 84.1025 26.3572L85.7657 26.2276V26.0764C85.7657 25.1908 85.2365 24.8776 84.5237 24.8776C83.6705 24.8776 83.1845 25.2556 83.1845 25.8928H82.2989C82.2989 24.7912 83.2061 24.0676 84.5669 24.0676C85.8737 24.0676 86.7593 24.7588 86.7593 26.1844V29.5H85.8953L85.7873 28.6468C85.5173 29.2516 84.7937 29.6296 83.9405 29.6296ZM84.2321 28.8412C85.1933 28.8412 85.7765 28.2148 85.7765 27.2212V26.9404L84.4265 27.0484C83.5301 27.1348 83.1629 27.4804 83.1629 27.9988C83.1629 28.5604 83.5733 28.8412 84.2321 28.8412ZM89.4632 29.5H88.448V25.072H87.4112V24.2188H88.448V22.5664H89.4632V24.2188H90.5V25.072H89.4632V29.5ZM93.5292 29.6296C91.974 29.6296 90.9048 28.5064 90.9048 26.8648C90.9048 25.2124 91.9524 24.0676 93.486 24.0676C94.9872 24.0676 95.97 25.1044 95.97 26.6704V27.0484L91.8876 27.0592C91.9632 28.1716 92.5464 28.7872 93.5508 28.7872C94.3392 28.7872 94.8576 28.4632 95.0304 27.8584H95.9808C95.7216 28.9924 94.836 29.6296 93.5292 29.6296ZM93.486 24.9208C92.6004 24.9208 92.0388 25.45 91.9092 26.3788H94.9548C94.9548 25.504 94.3824 24.9208 93.486 24.9208ZM96.5639 27.9664H97.5359C97.5359 28.5064 97.9463 28.8304 98.6159 28.8304C99.3287 28.8304 99.7391 28.5388 99.7391 28.0528C99.7391 27.6964 99.5663 27.4804 99.0155 27.34L98.0867 27.124C97.1471 26.8972 96.7043 26.4328 96.7043 25.6552C96.7043 24.6832 97.5251 24.0676 98.6915 24.0676C99.8471 24.0676 100.603 24.7156 100.625 25.72H99.6527C99.6311 25.1908 99.2747 24.856 98.6591 24.856C98.0219 24.856 97.6655 25.1368 97.6655 25.6228C97.6655 25.9792 97.9247 26.2168 98.4431 26.3464L99.3719 26.5732C100.268 26.7892 100.711 27.1996 100.711 27.988C100.711 28.9924 99.8471 29.6296 98.5943 29.6296C97.3523 29.6296 96.5639 28.9708 96.5639 27.9664ZM103.219 29.5H102.204V25.072H101.167V24.2188H102.204V22.5664H103.219V24.2188H104.256V25.072H103.219V29.5ZM110.658 29.5H108.077V21.6916H110.615C112.948 21.6916 114.525 23.2684 114.525 25.6012C114.525 27.9232 112.97 29.5 110.658 29.5ZM110.54 22.6636H109.136V28.5172H110.583C112.322 28.5172 113.423 27.394 113.423 25.6012C113.423 23.7868 112.322 22.6636 110.54 22.6636ZM117.869 29.6296C116.314 29.6296 115.245 28.5064 115.245 26.8648C115.245 25.2124 116.292 24.0676 117.826 24.0676C119.327 24.0676 120.31 25.1044 120.31 26.6704V27.0484L116.228 27.0592C116.303 28.1716 116.886 28.7872 117.891 28.7872C118.679 28.7872 119.198 28.4632 119.37 27.8584H120.321C120.062 28.9924 119.176 29.6296 117.869 29.6296ZM117.826 24.9208C116.94 24.9208 116.379 25.45 116.249 26.3788H119.295C119.295 25.504 118.722 24.9208 117.826 24.9208ZM120.904 27.9664H121.876C121.876 28.5064 122.286 28.8304 122.956 28.8304C123.669 28.8304 124.079 28.5388 124.079 28.0528C124.079 27.6964 123.906 27.4804 123.356 27.34L122.427 27.124C121.487 26.8972 121.044 26.4328 121.044 25.6552C121.044 24.6832 121.865 24.0676 123.032 24.0676C124.187 24.0676 124.943 24.7156 124.965 25.72H123.993C123.971 25.1908 123.615 24.856 122.999 24.856C122.362 24.856 122.006 25.1368 122.006 25.6228C122.006 25.9792 122.265 26.2168 122.783 26.3464L123.712 26.5732C124.608 26.7892 125.051 27.1996 125.051 27.988C125.051 28.9924 124.187 29.6296 122.934 29.6296C121.692 29.6296 120.904 28.9708 120.904 27.9664ZM126.566 22.966C126.199 22.966 125.896 22.6636 125.896 22.2964C125.896 21.9184 126.199 21.6268 126.566 21.6268C126.933 21.6268 127.235 21.9184 127.235 22.2964C127.235 22.6636 126.933 22.966 126.566 22.966ZM126.069 29.5V24.2188H127.084V29.5H126.069ZM128.115 26.7244C128.115 25.234 129.076 24.0676 130.61 24.0676C131.463 24.0676 132.122 24.4564 132.457 25.1152L132.532 24.2188H133.44V29.284C133.44 30.9472 132.414 32.0056 130.794 32.0056C129.357 32.0056 128.374 31.1956 128.18 29.8564H129.195C129.325 30.634 129.908 31.0876 130.794 31.0876C131.787 31.0876 132.435 30.4396 132.435 29.4352V28.3768C132.09 28.9924 131.398 29.3596 130.567 29.3596C129.066 29.3596 128.115 28.204 128.115 26.7244ZM129.13 26.7028C129.13 27.6964 129.746 28.474 130.74 28.474C131.766 28.474 132.392 27.7396 132.392 26.7028C132.392 25.6876 131.787 24.9532 130.75 24.9532C129.735 24.9532 129.13 25.7308 129.13 26.7028ZM135.812 29.5H134.797V24.2188H135.715L135.823 25.0288C136.158 24.424 136.827 24.0676 137.572 24.0676C138.966 24.0676 139.603 24.9208 139.603 26.2708V29.5H138.588V26.4976C138.588 25.4284 138.091 24.9964 137.313 24.9964C136.363 24.9964 135.812 25.6768 135.812 26.7028V29.5Z" fill="white"/>
<path d="M77.235 34.7818V34.2958H80.1132V34.7818H78.9414V38.2H78.4122V34.7818H77.235ZM79.9049 36.877C79.9049 36.0616 80.4881 35.4892 81.2819 35.4892C82.0703 35.4892 82.6535 36.0616 82.6535 36.877C82.6535 37.6924 82.0703 38.2648 81.2819 38.2648C80.4881 38.2648 79.9049 37.6924 79.9049 36.877ZM80.4179 36.877C80.4179 37.4278 80.7689 37.8112 81.2819 37.8112C81.7895 37.8112 82.1459 37.4278 82.1459 36.877C82.1459 36.3262 81.7895 35.9428 81.2819 35.9428C80.7689 35.9428 80.4179 36.3262 80.4179 36.877ZM84.2198 38.2648C83.453 38.2648 82.9886 37.6924 82.9886 36.8878C82.9886 36.0778 83.4584 35.4838 84.2414 35.4838C84.6464 35.4838 84.9866 35.662 85.1648 35.986V34.2256H85.667V38.2H85.2134L85.1702 37.7194C84.9974 38.0812 84.641 38.2648 84.2198 38.2648ZM84.3224 37.8058C84.8408 37.8058 85.1594 37.4224 85.1594 36.8716C85.1594 36.3316 84.8408 35.9428 84.3224 35.9428C83.804 35.9428 83.5016 36.3316 83.5016 36.8716C83.5016 37.417 83.804 37.8058 84.3224 37.8058ZM87.1175 38.2648C86.5505 38.2648 86.2157 37.9462 86.2157 37.4656C86.2157 36.9796 86.5775 36.6772 87.1985 36.6286L88.0301 36.5638V36.4882C88.0301 36.0454 87.7655 35.8888 87.4091 35.8888C86.9825 35.8888 86.7395 36.0778 86.7395 36.3964H86.2967C86.2967 35.8456 86.7503 35.4838 87.4307 35.4838C88.0841 35.4838 88.5269 35.8294 88.5269 36.5422V38.2H88.0949L88.0409 37.7734C87.9059 38.0758 87.5441 38.2648 87.1175 38.2648ZM87.2633 37.8706C87.7439 37.8706 88.0355 37.5574 88.0355 37.0606V36.9202L87.3605 36.9742C86.9123 37.0174 86.7287 37.1902 86.7287 37.4494C86.7287 37.7302 86.9339 37.8706 87.2633 37.8706ZM88.8588 39.3826V38.9668H89.199C89.442 38.9668 89.6364 38.929 89.7606 38.5942L89.8524 38.3404L88.7886 35.5594H89.3232L90.09 37.687L90.873 35.5594H91.3968L90.1494 38.794C89.9712 39.2476 89.7066 39.4366 89.3016 39.4366C89.1342 39.4366 88.9938 39.415 88.8588 39.3826ZM92.0612 37.9894C92.0612 38.3782 91.7696 38.7022 91.3862 38.7508V38.524C91.6076 38.4862 91.7642 38.3404 91.7642 38.173C91.7264 38.1946 91.6832 38.2054 91.6184 38.2054C91.4402 38.2054 91.289 38.0758 91.289 37.876C91.289 37.66 91.4348 37.5034 91.6508 37.5034C91.8776 37.5034 92.0612 37.6924 92.0612 37.9894ZM94.8033 34.771H93.9825V34.2958H95.3109V38.2H94.8033V34.771ZM96.6688 34.771H95.848V34.2958H97.1764V38.2H96.6688V34.771ZM98.3712 36.2398C98.1606 36.2398 97.9824 36.067 97.9824 35.8672C97.9824 35.6566 98.1606 35.4838 98.3712 35.4838C98.5764 35.4838 98.7546 35.6566 98.7546 35.8672C98.7546 36.067 98.5764 36.2398 98.3712 36.2398ZM98.3712 38.2648C98.1606 38.2648 97.9824 38.092 97.9824 37.8868C97.9824 37.6762 98.1606 37.5034 98.3712 37.5034C98.5764 37.5034 98.7546 37.6762 98.7546 37.8868C98.7546 38.092 98.5764 38.2648 98.3712 38.2648ZM102.291 37.4116H101.827V38.2H101.319V37.4116H99.2995V36.9418L101.141 34.2958H101.827V36.9418H102.291V37.4116ZM99.8719 36.9418H101.319V34.8574L99.8719 36.9418ZM102.759 36.2506C102.759 35.041 103.386 34.2202 104.369 34.2202C105.346 34.2202 105.972 35.041 105.972 36.2506C105.972 37.4656 105.373 38.2702 104.369 38.2702C103.359 38.2702 102.759 37.4656 102.759 36.2506ZM103.283 36.2506C103.283 37.2118 103.683 37.795 104.369 37.795C105.054 37.795 105.449 37.2118 105.449 36.2506C105.449 35.2786 105.054 34.6954 104.369 34.6954C103.683 34.6954 103.283 35.2786 103.283 36.2506Z" fill="#808080"/>
<circle cx="79.3996" cy="10.1" r="1.8" fill="#808080"/>
<path d="M82.9909 11.5H82.5301V8.8684H83.5345C84.1321 8.8684 84.4813 9.1708 84.4813 9.6892C84.4813 10.042 84.3157 10.294 84.0061 10.42L84.5065 11.5H84.0025L83.5561 10.5172H82.9909V11.5ZM82.9909 9.2788V10.1104H83.5345C83.8261 10.1104 83.9989 9.9556 83.9989 9.6892C83.9989 9.4264 83.8261 9.2788 83.5345 9.2788H82.9909ZM86.5402 11.5H84.9058V8.8684H86.5402V9.2932H85.3666V9.97H86.4178V10.3768H85.3666V11.0752H86.5402V11.5ZM88.1162 11.5432C87.3494 11.5432 86.8526 11.0104 86.8526 10.186C86.8526 9.3688 87.3674 8.8252 88.1378 8.8252C88.7606 8.8252 89.225 9.1888 89.315 9.754H88.829C88.739 9.448 88.4762 9.268 88.127 9.268C87.641 9.268 87.335 9.6208 87.335 10.1824C87.335 10.7404 87.6446 11.1004 88.127 11.1004C88.4834 11.1004 88.757 10.9132 88.8434 10.6216H89.3222C89.2214 11.176 88.739 11.5432 88.1162 11.5432ZM90.1602 8.8684V11.5H89.6994V8.8684H90.1602ZM92.342 11.5H90.7076V8.8684H92.342V9.2932H91.1684V9.97H92.2196V10.3768H91.1684V11.0752H92.342V11.5ZM93.5436 11.5L92.55 8.8684H93.0396L93.6156 10.384C93.6732 10.5424 93.7236 10.6972 93.7812 10.9096C93.846 10.6792 93.9 10.5172 93.9504 10.384L94.5192 8.8684H94.998L94.0188 11.5H93.5436ZM96.9247 11.5H95.2903V8.8684H96.9247V9.2932H95.7511V9.97H96.8023V10.3768H95.7511V11.0752H96.9247V11.5ZM98.3351 11.5H97.3883V8.8684H98.3099C99.0875 8.8684 99.6239 9.4048 99.6239 10.1896C99.6239 10.9636 99.0983 11.5 98.3351 11.5ZM98.2667 9.2932H97.8491V11.0752H98.2919C98.8175 11.0752 99.1379 10.7368 99.1379 10.1896C99.1379 9.6316 98.8103 9.2932 98.2667 9.2932Z" fill="#808080"/>
<rect x="0.5" y="14.5" width="183" height="55" rx="13.5" fill="#121212" stroke="#3E3E3E"/>
<rect x="8" y="22" width="60" height="40" rx="12" fill="black"/>
<path fill-rule="evenodd" clip-rule="evenodd" d="M38.9115 32.4121C39.0468 32.4587 39.1642 32.5465 39.2473 32.6631C39.3304 32.7797 39.375 32.9193 39.3749 33.0624V40.6249H43.4999C43.6289 40.625 43.7553 40.6613 43.8646 40.7297C43.9739 40.7982 44.0618 40.896 44.1182 41.012C44.1745 41.1281 44.1971 41.2576 44.1833 41.3859C44.1695 41.5141 44.12 41.6359 44.0403 41.7373L36.4778 51.3623C36.3894 51.4747 36.2682 51.5567 36.1311 51.5969C35.9939 51.6372 35.8476 51.6337 35.7126 51.587C35.5775 51.5403 35.4603 51.4526 35.3774 51.3362C35.2945 51.2197 35.2499 51.0804 35.2499 50.9374V43.3749H31.1249C30.9959 43.3749 30.8695 43.3386 30.7602 43.2702C30.6508 43.2017 30.563 43.1039 30.5066 42.9878C30.4502 42.8718 30.4277 42.7423 30.4414 42.614C30.4552 42.4858 30.5048 42.364 30.5845 42.2626L38.147 32.6376C38.2352 32.5252 38.3562 32.4431 38.4932 32.4027C38.6302 32.3623 38.7764 32.3656 38.9115 32.4121Z" fill="#02DD41"/>
<path d="M76.5466 37.324V44.908H80.3626V46H75.3706V37.324H76.5466ZM83.0441 46.144C81.7841 46.144 81.0401 45.436 81.0401 44.368C81.0401 43.288 81.8441 42.616 83.2241 42.508L85.0721 42.364V42.196C85.0721 41.212 84.4841 40.864 83.6921 40.864C82.7441 40.864 82.2041 41.284 82.2041 41.992H81.2201C81.2201 40.768 82.2281 39.964 83.7401 39.964C85.1921 39.964 86.1761 40.732 86.1761 42.316V46H85.2161L85.0961 45.052C84.7961 45.724 83.9921 46.144 83.0441 46.144ZM83.3681 45.268C84.4361 45.268 85.0841 44.572 85.0841 43.468V43.156L83.5841 43.276C82.5881 43.372 82.1801 43.756 82.1801 44.332C82.1801 44.956 82.6361 45.268 83.3681 45.268ZM89.1805 46H88.0525V41.08H86.9005V40.132H88.0525V38.296H89.1805V40.132H90.3325V41.08H89.1805V46ZM93.6982 46.144C91.9702 46.144 90.7822 44.896 90.7822 43.072C90.7822 41.236 91.9462 39.964 93.6502 39.964C95.3182 39.964 96.4102 41.116 96.4102 42.856V43.276L91.8742 43.288C91.9582 44.524 92.6062 45.208 93.7222 45.208C94.5982 45.208 95.1742 44.848 95.3662 44.176H96.4222C96.1342 45.436 95.1502 46.144 93.6982 46.144ZM93.6502 40.912C92.6662 40.912 92.0422 41.5 91.8982 42.532H95.2822C95.2822 41.56 94.6462 40.912 93.6502 40.912ZM97.0701 44.296H98.1501C98.1501 44.896 98.6061 45.256 99.3501 45.256C100.142 45.256 100.598 44.932 100.598 44.392C100.598 43.996 100.406 43.756 99.7941 43.6L98.7621 43.36C97.7181 43.108 97.2261 42.592 97.2261 41.728C97.2261 40.648 98.1381 39.964 99.4341 39.964C100.718 39.964 101.558 40.684 101.582 41.8H100.502C100.478 41.212 100.082 40.84 99.3981 40.84C98.6901 40.84 98.2941 41.152 98.2941 41.692C98.2941 42.088 98.5821 42.352 99.1581 42.496L100.19 42.748C101.186 42.988 101.678 43.444 101.678 44.32C101.678 45.436 100.718 46.144 99.3261 46.144C97.9461 46.144 97.0701 45.412 97.0701 44.296ZM104.465 46H103.337V41.08H102.185V40.132H103.337V38.296H104.465V40.132H105.617V41.08H104.465V46ZM112.731 46H109.863V37.324H112.683C115.275 37.324 117.027 39.076 117.027 41.668C117.027 44.248 115.299 46 112.731 46ZM112.599 38.404H111.039V44.908H112.647C114.579 44.908 115.803 43.66 115.803 41.668C115.803 39.652 114.579 38.404 112.599 38.404ZM120.743 46.144C119.015 46.144 117.827 44.896 117.827 43.072C117.827 41.236 118.991 39.964 120.695 39.964C122.363 39.964 123.455 41.116 123.455 42.856V43.276L118.919 43.288C119.003 44.524 119.651 45.208 120.767 45.208C121.643 45.208 122.219 44.848 122.411 44.176H123.467C123.179 45.436 122.195 46.144 120.743 46.144ZM120.695 40.912C119.711 40.912 119.087 41.5 118.943 42.532H122.327C122.327 41.56 121.691 40.912 120.695 40.912ZM124.115 44.296H125.195C125.195 44.896 125.651 45.256 126.395 45.256C127.187 45.256 127.643 44.932 127.643 44.392C127.643 43.996 127.451 43.756 126.839 43.6L125.807 43.36C124.763 43.108 124.271 42.592 124.271 41.728C124.271 40.648 125.183 39.964 126.479 39.964C127.763 39.964 128.603 40.684 128.627 41.8H127.547C127.523 41.212 127.127 40.84 126.443 40.84C125.735 40.84 125.339 41.152 125.339 41.692C125.339 42.088 125.627 42.352 126.203 42.496L127.235 42.748C128.231 42.988 128.723 43.444 128.723 44.32C128.723 45.436 127.763 46.144 126.371 46.144C124.991 46.144 124.115 45.412 124.115 44.296ZM130.406 38.74C129.998 38.74 129.662 38.404 129.662 37.996C129.662 37.576 129.998 37.252 130.406 37.252C130.814 37.252 131.15 37.576 131.15 37.996C131.15 38.404 130.814 38.74 130.406 38.74ZM129.854 46V40.132H130.982V46H129.854ZM132.127 42.916C132.127 41.26 133.195 39.964 134.899 39.964C135.847 39.964 136.579 40.396 136.951 41.128L137.035 40.132H138.043V45.76C138.043 47.608 136.903 48.784 135.103 48.784C133.507 48.784 132.415 47.884 132.199 46.396H133.327C133.471 47.26 134.119 47.764 135.103 47.764C136.207 47.764 136.927 47.044 136.927 45.928V44.752C136.543 45.436 135.775 45.844 134.851 45.844C133.183 45.844 132.127 44.56 132.127 42.916ZM133.255 42.892C133.255 43.996 133.939 44.86 135.043 44.86C136.183 44.86 136.879 44.044 136.879 42.892C136.879 41.764 136.207 40.948 135.055 40.948C133.927 40.948 133.255 41.812 133.255 42.892ZM140.679 46H139.551V40.132H140.571L140.691 41.032C141.063 40.36 141.807 39.964 142.635 39.964C144.183 39.964 144.891 40.912 144.891 42.412V46H143.763V42.664C143.763 41.476 143.211 40.996 142.347 40.996C141.291 40.996 140.679 41.752 140.679 42.892V46Z" fill="white"/>
<path d="M75.4286 51.202V50.662H78.6266V51.202H77.3246V55H76.7366V51.202H75.4286ZM78.3952 53.53C78.3952 52.624 79.0432 51.988 79.9252 51.988C80.8012 51.988 81.4492 52.624 81.4492 53.53C81.4492 54.436 80.8012 55.072 79.9252 55.072C79.0432 55.072 78.3952 54.436 78.3952 53.53ZM78.9652 53.53C78.9652 54.142 79.3552 54.568 79.9252 54.568C80.4892 54.568 80.8852 54.142 80.8852 53.53C80.8852 52.918 80.4892 52.492 79.9252 52.492C79.3552 52.492 78.9652 52.918 78.9652 53.53ZM83.1895 55.072C82.3375 55.072 81.8215 54.436 81.8215 53.542C81.8215 52.642 82.3435 51.982 83.2135 51.982C83.6635 51.982 84.0415 52.18 84.2395 52.54V50.584H84.7975V55H84.2935L84.2455 54.466C84.0535 54.868 83.6575 55.072 83.1895 55.072ZM83.3035 54.562C83.8795 54.562 84.2335 54.136 84.2335 53.524C84.2335 52.924 83.8795 52.492 83.3035 52.492C82.7275 52.492 82.3915 52.924 82.3915 53.524C82.3915 54.13 82.7275 54.562 83.3035 54.562ZM86.4092 55.072C85.7792 55.072 85.4072 54.718 85.4072 54.184C85.4072 53.644 85.8092 53.308 86.4992 53.254L87.4232 53.182V53.098C87.4232 52.606 87.1292 52.432 86.7332 52.432C86.2592 52.432 85.9892 52.642 85.9892 52.996H85.4972C85.4972 52.384 86.0012 51.982 86.7572 51.982C87.4832 51.982 87.9752 52.366 87.9752 53.158V55H87.4952L87.4352 54.526C87.2852 54.862 86.8832 55.072 86.4092 55.072ZM86.5712 54.634C87.1052 54.634 87.4292 54.286 87.4292 53.734V53.578L86.6792 53.638C86.1812 53.686 85.9772 53.878 85.9772 54.166C85.9772 54.478 86.2052 54.634 86.5712 54.634ZM88.3439 56.314V55.852H88.7219C88.9919 55.852 89.2079 55.81 89.3459 55.438L89.4479 55.156L88.2659 52.066H88.8599L89.7119 54.43L90.5819 52.066H91.1639L89.7779 55.66C89.5799 56.164 89.2859 56.374 88.8359 56.374C88.6499 56.374 88.4939 56.35 88.3439 56.314ZM91.9022 54.766C91.9022 55.198 91.5782 55.558 91.1522 55.612V55.36C91.3982 55.318 91.5722 55.156 91.5722 54.97C91.5302 54.994 91.4822 55.006 91.4102 55.006C91.2122 55.006 91.0442 54.862 91.0442 54.64C91.0442 54.4 91.2062 54.226 91.4462 54.226C91.6982 54.226 91.9022 54.436 91.9022 54.766ZM94.949 51.19H94.037V50.662H95.513V55H94.949V51.19ZM97.0218 51.19H96.1098V50.662H97.5858V55H97.0218V51.19ZM98.9134 52.822C98.6794 52.822 98.4814 52.63 98.4814 52.408C98.4814 52.174 98.6794 51.982 98.9134 51.982C99.1414 51.982 99.3394 52.174 99.3394 52.408C99.3394 52.63 99.1414 52.822 98.9134 52.822ZM98.9134 55.072C98.6794 55.072 98.4814 54.88 98.4814 54.652C98.4814 54.418 98.6794 54.226 98.9134 54.226C99.1414 54.226 99.3394 54.418 99.3394 54.652C99.3394 54.88 99.1414 55.072 98.9134 55.072ZM103.269 54.124H102.753V55H102.189V54.124H99.9447V53.602L101.991 50.662H102.753V53.602H103.269V54.124ZM100.581 53.602H102.189V51.286L100.581 53.602ZM103.789 52.834C103.789 51.49 104.485 50.578 105.577 50.578C106.663 50.578 107.359 51.49 107.359 52.834C107.359 54.184 106.693 55.078 105.577 55.078C104.455 55.078 103.789 54.184 103.789 52.834ZM104.371 52.834C104.371 53.902 104.815 54.55 105.577 54.55C106.339 54.55 106.777 53.902 106.777 52.834C106.777 51.754 106.339 51.106 105.577 51.106C104.815 51.106 104.371 51.754 104.371 52.834Z" fill="#808080"/>
<circle cx="78" cy="31" r="2" fill="#E0FD0A"/>
<path d="M83.0965 32.5H82.5925V29.576H83.1005L84.4725 31.648V29.576H84.9765V32.5H84.4725L83.0965 30.428V32.5ZM87.3998 32.5H85.5838V29.576H87.3998V30.048H86.0958V30.8H87.2638V31.252H86.0958V32.028H87.3998V32.5ZM88.5229 32.5L87.6509 29.576H88.1829L88.6469 31.12C88.6909 31.28 88.7349 31.444 88.7789 31.7C88.8269 31.44 88.8709 31.288 88.9229 31.12L89.3829 29.576H89.9469L90.3989 31.12C90.4469 31.284 90.4909 31.452 90.5389 31.7C90.5949 31.428 90.6349 31.272 90.6789 31.124L91.1509 29.576H91.6709L90.7829 32.5H90.2869L89.6629 30.372L89.0269 32.5H88.5229Z" fill="#E0FD0A"/>
</svg>
