<svg width="414" height="293" viewBox="0 0 414 293" fill="none" xmlns="http://www.w3.org/2000/svg">
<path d="M374.5 0C374.5 53 321.5 12 305 63C294.809 94.5 284.5 31.5 265.5 70.5C258.5 104 265.5 153 230 153C212.5 130.5 191 175 181 141.5C171 108 159.5 147.5 153.5 164C134.591 216 119 130.5 108.5 208C98.8806 279 70 174 61.5 224C50.025 291.5 51.4961 291.5 19 291.5" stroke="#06812F" stroke-width="3"/>
<circle cx="262" cy="100" r="6" fill="#0AE754"/>
<circle cx="262" cy="100" r="18" fill="#0AE754" fill-opacity="0.25"/>
<g filter="url(#filter0_f_1014_124)">
<circle cx="262" cy="100" r="54" fill="#0AE754" fill-opacity="0.25"/>
</g>
<path d="M7.26108 200.248H6.22908V202H5.10108V200.248H0.613078V199.204L4.70508 193.324H6.22908V199.204H7.26108V200.248ZM1.88508 199.204H5.10108V194.572L1.88508 199.204ZM11.2091 202.144C9.43308 202.144 8.28108 201.016 8.28108 199.288H9.44508C9.44508 200.404 10.1291 201.088 11.2331 201.088C12.4091 201.088 13.1651 200.308 13.1651 199.132C13.1651 198.016 12.4571 197.188 11.2451 197.188C10.5131 197.188 9.84108 197.536 9.44508 198.028L8.44908 197.776L9.50508 193.324H13.8491V194.404H10.3571L9.78108 196.708C10.2371 196.36 10.8131 196.18 11.4611 196.18C13.2251 196.18 14.3651 197.416 14.3651 199.084C14.3651 200.884 13.0811 202.144 11.2091 202.144Z" fill="#404040"/>
<path d="M46.0814 200.248H45.0494V202H43.9214V200.248H39.4334V199.204L43.5254 193.324H45.0494V199.204H46.0814V200.248ZM40.7054 199.204H43.9214V194.572L40.7054 199.204ZM47.2423 197.668C47.2423 194.98 48.6343 193.156 50.8183 193.156C52.9903 193.156 54.3823 194.98 54.3823 197.668C54.3823 200.368 53.0503 202.156 50.8183 202.156C48.5743 202.156 47.2423 200.368 47.2423 197.668ZM48.4063 197.668C48.4063 199.804 49.2943 201.1 50.8183 201.1C52.3423 201.1 53.2183 199.804 53.2183 197.668C53.2183 195.508 52.3423 194.212 50.8183 194.212C49.2943 194.212 48.4063 195.508 48.4063 197.668Z" fill="#404040"/>
<path d="M83.1286 197.512H82.2646V196.732L84.7246 194.368H80.8246V193.324H86.2126V194.272L83.8366 196.54C85.3126 196.72 86.4286 197.716 86.4286 199.276C86.4286 201.028 85.1086 202.144 83.3446 202.144C81.6406 202.144 80.4166 201.1 80.4166 199.3H81.5806C81.5806 200.428 82.2766 201.088 83.3686 201.088C84.4966 201.088 85.2286 200.368 85.2286 199.252C85.2286 198.208 84.5086 197.512 83.1286 197.512ZM90.3575 202.144C88.5815 202.144 87.4295 201.016 87.4295 199.288H88.5935C88.5935 200.404 89.2775 201.088 90.3815 201.088C91.5575 201.088 92.3135 200.308 92.3135 199.132C92.3135 198.016 91.6055 197.188 90.3935 197.188C89.6615 197.188 88.9895 197.536 88.5935 198.028L87.5975 197.776L88.6535 193.324H92.9975V194.404H89.5055L88.9295 196.708C89.3855 196.36 89.9615 196.18 90.6095 196.18C92.3735 196.18 93.5135 197.416 93.5135 199.084C93.5135 200.884 92.2295 202.144 90.3575 202.144Z" fill="#404040"/>
<path d="M122.502 197.512H121.638V196.732L124.098 194.368H120.198V193.324H125.586V194.272L123.21 196.54C124.686 196.72 125.802 197.716 125.802 199.276C125.802 201.028 124.482 202.144 122.718 202.144C121.014 202.144 119.79 201.1 119.79 199.3H120.954C120.954 200.428 121.65 201.088 122.742 201.088C123.87 201.088 124.602 200.368 124.602 199.252C124.602 198.208 123.882 197.512 122.502 197.512ZM126.838 197.668C126.838 194.98 128.23 193.156 130.414 193.156C132.586 193.156 133.978 194.98 133.978 197.668C133.978 200.368 132.646 202.156 130.414 202.156C128.17 202.156 126.838 200.368 126.838 197.668ZM128.002 197.668C128.002 199.804 128.89 201.1 130.414 201.1C131.938 201.1 132.814 199.804 132.814 197.668C132.814 195.508 131.938 194.212 130.414 194.212C128.89 194.212 128.002 195.508 128.002 197.668Z" fill="#404040"/>
<path d="M166.453 201.988L160.597 202V201.1L163.393 198.688C164.797 197.476 165.193 196.888 165.193 195.964C165.193 194.872 164.569 194.224 163.525 194.224C162.457 194.224 161.761 195.004 161.737 196.24H160.561C160.597 194.38 161.773 193.168 163.537 193.168C165.277 193.168 166.393 194.224 166.393 195.892C166.393 197.128 165.781 198.004 164.245 199.336L162.445 200.896H166.453V201.988ZM170.369 202.144C168.593 202.144 167.441 201.016 167.441 199.288H168.605C168.605 200.404 169.289 201.088 170.393 201.088C171.569 201.088 172.325 200.308 172.325 199.132C172.325 198.016 171.617 197.188 170.405 197.188C169.673 197.188 169.001 197.536 168.605 198.028L167.609 197.776L168.665 193.324H173.009V194.404H169.517L168.941 196.708C169.397 196.36 169.973 196.18 170.621 196.18C172.385 196.18 173.525 197.416 173.525 199.084C173.525 200.884 172.241 202.144 170.369 202.144Z" fill="#404040"/>
<path d="M205.797 201.988L199.941 202V201.1L202.737 198.688C204.141 197.476 204.537 196.888 204.537 195.964C204.537 194.872 203.913 194.224 202.869 194.224C201.801 194.224 201.105 195.004 201.081 196.24H199.905C199.941 194.38 201.117 193.168 202.881 193.168C204.621 193.168 205.737 194.224 205.737 195.892C205.737 197.128 205.125 198.004 203.589 199.336L201.789 200.896H205.797V201.988ZM206.879 197.668C206.879 194.98 208.271 193.156 210.455 193.156C212.627 193.156 214.019 194.98 214.019 197.668C214.019 200.368 212.687 202.156 210.455 202.156C208.211 202.156 206.879 200.368 206.879 197.668ZM208.043 197.668C208.043 199.804 208.931 201.1 210.455 201.1C211.979 201.1 212.855 199.804 212.855 197.668C212.855 195.508 211.979 194.212 210.455 194.212C208.931 194.212 208.043 195.508 208.043 197.668Z" fill="#404040"/>
<path d="M243.537 194.38H241.713V193.324H244.665V202H243.537V194.38ZM249.121 202.144C247.345 202.144 246.193 201.016 246.193 199.288H247.357C247.357 200.404 248.041 201.088 249.145 201.088C250.321 201.088 251.077 200.308 251.077 199.132C251.077 198.016 250.369 197.188 249.157 197.188C248.425 197.188 247.753 197.536 247.357 198.028L246.361 197.776L247.417 193.324H251.761V194.404H248.269L247.693 196.708C248.149 196.36 248.725 196.18 249.373 196.18C251.137 196.18 252.277 197.416 252.277 199.084C252.277 200.884 250.993 202.144 249.121 202.144Z" fill="#404040"/>
<path d="M283.398 194.38H281.574V193.324H284.526V202H283.398V194.38ZM286.113 197.668C286.113 194.98 287.505 193.156 289.689 193.156C291.861 193.156 293.253 194.98 293.253 197.668C293.253 200.368 291.921 202.156 289.689 202.156C287.445 202.156 286.113 200.368 286.113 197.668ZM287.277 197.668C287.277 199.804 288.165 201.1 289.689 201.1C291.213 201.1 292.089 199.804 292.089 197.668C292.089 195.508 291.213 194.212 289.689 194.212C288.165 194.212 287.277 195.508 287.277 197.668Z" fill="#404040"/>
<path d="M326.959 202.144C325.183 202.144 324.031 201.016 324.031 199.288H325.195C325.195 200.404 325.879 201.088 326.983 201.088C328.159 201.088 328.915 200.308 328.915 199.132C328.915 198.016 328.207 197.188 326.995 197.188C326.263 197.188 325.591 197.536 325.195 198.028L324.199 197.776L325.255 193.324H329.599V194.404H326.107L325.531 196.708C325.987 196.36 326.563 196.18 327.211 196.18C328.975 196.18 330.115 197.416 330.115 199.084C330.115 200.884 328.831 202.144 326.959 202.144Z" fill="#404040"/>
<path d="M363.928 197.668C363.928 194.98 365.32 193.156 367.504 193.156C369.676 193.156 371.068 194.98 371.068 197.668C371.068 200.368 369.736 202.156 367.504 202.156C365.26 202.156 363.928 200.368 363.928 197.668ZM365.092 197.668C365.092 199.804 365.98 201.1 367.504 201.1C369.028 201.1 369.904 199.804 369.904 197.668C369.904 195.508 369.028 194.212 367.504 194.212C365.98 194.212 365.092 195.508 365.092 197.668Z" fill="#404040"/>
<path d="M402.127 199.324V198.316H405.787V199.324H402.127ZM410.043 202.144C408.267 202.144 407.115 201.016 407.115 199.288H408.279C408.279 200.404 408.963 201.088 410.067 201.088C411.243 201.088 411.999 200.308 411.999 199.132C411.999 198.016 411.291 197.188 410.079 197.188C409.347 197.188 408.675 197.536 408.279 198.028L407.283 197.776L408.339 193.324H412.683V194.404H409.191L408.615 196.708C409.071 196.36 409.647 196.18 410.295 196.18C412.059 196.18 413.199 197.416 413.199 199.084C413.199 200.884 411.915 202.144 410.043 202.144Z" fill="#404040"/>
<defs>
<filter id="filter0_f_1014_124" x="164" y="2" width="196" height="196" filterUnits="userSpaceOnUse" color-interpolation-filters="sRGB">
<feFlood flood-opacity="0" result="BackgroundImageFix"/>
<feBlend mode="normal" in="SourceGraphic" in2="BackgroundImageFix" result="shape"/>
<feGaussianBlur stdDeviation="22" result="effect1_foregroundBlur_1014_124"/>
</filter>
</defs>
</svg>
