<svg width="200" height="150" viewBox="0 0 200 150" fill="none" xmlns="http://www.w3.org/2000/svg">
<rect width="200" height="150" rx="12" fill="#121212"/>
<path d="M20.728 15.284C18.856 15.284 17.728 16.664 17.728 18.716C17.728 20.816 18.952 22.028 20.74 22.028C22.216 22.028 23.404 21.272 23.404 19.52V19.268H20.5V18.224H24.508V23.012H23.524L23.44 21.836C22.972 22.592 21.916 23.144 20.644 23.144C18.184 23.144 16.492 21.368 16.492 18.692C16.492 16.052 18.196 14.18 20.752 14.18C22.648 14.18 24.124 15.272 24.412 16.94H23.164C22.84 15.836 21.88 15.284 20.728 15.284ZM29.2318 17.084V18.116H28.7278C27.6598 18.116 26.9998 18.764 26.9998 19.892V23H25.8718V17.144H26.9278L26.9998 18.032C27.2398 17.42 27.8278 17.012 28.6318 17.012C28.8358 17.012 29.0038 17.036 29.2318 17.084ZM29.5748 20.06C29.5748 18.248 30.8708 16.976 32.6348 16.976C34.3868 16.976 35.6828 18.248 35.6828 20.06C35.6828 21.872 34.3868 23.144 32.6348 23.144C30.8708 23.144 29.5748 21.872 29.5748 20.06ZM30.7148 20.06C30.7148 21.284 31.4948 22.136 32.6348 22.136C33.7628 22.136 34.5548 21.284 34.5548 20.06C34.5548 18.836 33.7628 17.984 32.6348 17.984C31.4948 17.984 30.7148 18.836 30.7148 20.06ZM37.8019 23L35.8819 17.132H37.0459L38.0179 20.18C38.1499 20.612 38.2699 21.056 38.3779 21.572C38.4739 21.056 38.6299 20.564 38.7619 20.18L39.7459 17.132H40.8979L41.8699 20.18C41.9659 20.468 42.1579 21.152 42.2539 21.572C42.3499 21.104 42.4579 20.696 42.6259 20.18L43.6099 17.132H44.7859L42.7819 23H41.7139L40.6939 19.856C40.5019 19.268 40.3819 18.812 40.3219 18.488C40.2619 18.776 40.1539 19.16 39.9379 19.868L38.9179 23H37.8019ZM47.2889 23H46.1609V18.08H45.0089V17.132H46.1609V15.296H47.2889V17.132H48.4409V18.08H47.2889V23ZM50.4612 22.988H49.3332V14.168H50.4612V18.032C50.8332 17.396 51.5412 16.964 52.4532 16.964C53.9532 16.964 54.6732 17.912 54.6732 19.412V23H53.5452V19.664C53.5452 18.476 52.9812 17.996 52.1412 17.996C51.0492 17.996 50.4612 18.788 50.4612 19.796V22.988Z" fill="#E0FD0A"/>
<rect x="16" y="50" width="2" height="84" rx="1" fill="#353535"/>
<rect x="76" y="50" width="2" height="84" rx="1" fill="#353535"/>
<rect x="148" y="50" width="2" height="84" rx="1" fill="#353535"/>
<rect x="14" y="89" width="6" height="24" rx="3" fill="url(#paint0_linear_1012_31)"/>
<rect x="26" y="95" width="6" height="18" rx="3" fill="url(#paint1_linear_1012_31)"/>
<rect x="38" y="66" width="6" height="36" rx="3" fill="url(#paint2_linear_1012_31)"/>
<rect x="50" y="74" width="6" height="21" rx="3" fill="url(#paint3_linear_1012_31)"/>
<rect x="62" y="53" width="6" height="32" rx="3" fill="url(#paint4_linear_1012_31)"/>
<rect x="74" y="62" width="6" height="29" rx="3" fill="url(#paint5_linear_1012_31)"/>
<rect x="86" y="74" width="6" height="39" rx="3" fill="url(#paint6_linear_1012_31)"/>
<rect x="98" y="86" width="6" height="31" rx="3" fill="url(#paint7_linear_1012_31)"/>
<rect x="110" y="94" width="6" height="29" rx="3" fill="url(#paint8_linear_1012_31)"/>
<rect x="122" y="75" width="6" height="38" rx="3" fill="url(#paint9_linear_1012_31)"/>
<rect x="134" y="73" width="6" height="22" rx="3" fill="url(#paint10_linear_1012_31)"/>
<rect x="146" y="54" width="6" height="47" rx="3" fill="url(#paint11_linear_1012_31)"/>
<rect x="158" y="68" width="6" height="28" rx="3" fill="url(#paint12_linear_1012_31)"/>
<rect x="170" y="89" width="6" height="24" rx="3" fill="url(#paint13_linear_1012_31)"/>
<path d="M23.6668 133H22.9808V127.939H23.6668L26.2568 131.852V127.939H26.9428V133H26.2568L23.6668 129.087V133ZM27.7154 131.285C27.7154 130.228 28.4714 129.486 29.5004 129.486C30.5224 129.486 31.2784 130.228 31.2784 131.285C31.2784 132.342 30.5224 133.084 29.5004 133.084C28.4714 133.084 27.7154 132.342 27.7154 131.285ZM28.3804 131.285C28.3804 131.999 28.8354 132.496 29.5004 132.496C30.1584 132.496 30.6204 131.999 30.6204 131.285C30.6204 130.571 30.1584 130.074 29.5004 130.074C28.8354 130.074 28.3804 130.571 28.3804 131.285ZM32.7386 133L31.3596 129.577H32.0596L32.8086 131.488C32.9276 131.81 33.0256 132.097 33.0816 132.307C33.1376 132.083 33.2496 131.789 33.3686 131.488L34.1316 129.577H34.8176L33.3896 133H32.7386ZM37.9481 128.555H36.8841V127.939H38.6061V133H37.9481V128.555ZM40.3664 128.555H39.3024V127.939H41.0244V133H40.3664V128.555Z" fill="#969696"/>
<path d="M83.3977 133H82.7117V127.939H83.3977L85.9877 131.852V127.939H86.6737V133H85.9877L83.3977 129.087V133ZM87.4464 131.285C87.4464 130.228 88.2024 129.486 89.2314 129.486C90.2534 129.486 91.0094 130.228 91.0094 131.285C91.0094 132.342 90.2534 133.084 89.2314 133.084C88.2024 133.084 87.4464 132.342 87.4464 131.285ZM88.1114 131.285C88.1114 131.999 88.5664 132.496 89.2314 132.496C89.8894 132.496 90.3514 131.999 90.3514 131.285C90.3514 130.571 89.8894 130.074 89.2314 130.074C88.5664 130.074 88.1114 130.571 88.1114 131.285ZM92.4695 133L91.0905 129.577H91.7905L92.5395 131.488C92.6585 131.81 92.7565 132.097 92.8125 132.307C92.8685 132.083 92.9805 131.789 93.0995 131.488L93.8625 129.577H94.5485L93.1205 133H92.4695ZM97.6791 128.555H96.6151V127.939H98.3371V133H97.6791V128.555ZM102.588 132.993L99.1719 133V132.475L100.803 131.068C101.622 130.361 101.853 130.018 101.853 129.479C101.853 128.842 101.489 128.464 100.88 128.464C100.257 128.464 99.8509 128.919 99.8369 129.64H99.1509C99.1719 128.555 99.8579 127.848 100.887 127.848C101.902 127.848 102.553 128.464 102.553 129.437C102.553 130.158 102.196 130.669 101.3 131.446L100.25 132.356H102.588V132.993Z" fill="#969696"/>
<path d="M154.345 128.569V127.939H158.076V128.569H156.557V133H155.871V128.569H154.345ZM157.806 131.285C157.806 130.228 158.562 129.486 159.591 129.486C160.613 129.486 161.369 130.228 161.369 131.285C161.369 132.342 160.613 133.084 159.591 133.084C158.562 133.084 157.806 132.342 157.806 131.285ZM158.471 131.285C158.471 131.999 158.926 132.496 159.591 132.496C160.249 132.496 160.711 131.999 160.711 131.285C160.711 130.571 160.249 130.074 159.591 130.074C158.926 130.074 158.471 130.571 158.471 131.285ZM163.4 133.084C162.406 133.084 161.804 132.342 161.804 131.299C161.804 130.249 162.413 129.479 163.428 129.479C163.953 129.479 164.394 129.71 164.625 130.13V127.848H165.276V133H164.688L164.632 132.377C164.408 132.846 163.946 133.084 163.4 133.084ZM163.533 132.489C164.205 132.489 164.618 131.992 164.618 131.278C164.618 130.578 164.205 130.074 163.533 130.074C162.861 130.074 162.469 130.578 162.469 131.278C162.469 131.985 162.861 132.489 163.533 132.489ZM167.156 133.084C166.421 133.084 165.987 132.671 165.987 132.048C165.987 131.418 166.456 131.026 167.261 130.963L168.339 130.879V130.781C168.339 130.207 167.996 130.004 167.534 130.004C166.981 130.004 166.666 130.249 166.666 130.662H166.092C166.092 129.948 166.68 129.479 167.562 129.479C168.409 129.479 168.983 129.927 168.983 130.851V133H168.423L168.353 132.447C168.178 132.839 167.709 133.084 167.156 133.084ZM167.345 132.573C167.968 132.573 168.346 132.167 168.346 131.523V131.341L167.471 131.411C166.89 131.467 166.652 131.691 166.652 132.027C166.652 132.391 166.918 132.573 167.345 132.573ZM169.413 134.533V133.994H169.854C170.169 133.994 170.421 133.945 170.582 133.511L170.701 133.182L169.322 129.577H170.015L171.009 132.335L172.024 129.577H172.703L171.086 133.77C170.855 134.358 170.512 134.603 169.987 134.603C169.77 134.603 169.588 134.575 169.413 134.533Z" fill="#969696"/>
<defs>
<linearGradient id="paint0_linear_1012_31" x1="17" y1="89" x2="17" y2="118" gradientUnits="userSpaceOnUse">
<stop stop-color="#0AE754"/>
<stop offset="1" stop-color="#06812F"/>
</linearGradient>
<linearGradient id="paint1_linear_1012_31" x1="29" y1="95" x2="29" y2="116.75" gradientUnits="userSpaceOnUse">
<stop stop-color="#0AE754"/>
<stop offset="1" stop-color="#06812F"/>
</linearGradient>
<linearGradient id="paint2_linear_1012_31" x1="41" y1="66" x2="41" y2="109.5" gradientUnits="userSpaceOnUse">
<stop stop-color="#0AE754"/>
<stop offset="1" stop-color="#06812F"/>
</linearGradient>
<linearGradient id="paint3_linear_1012_31" x1="53" y1="74" x2="53" y2="99.375" gradientUnits="userSpaceOnUse">
<stop stop-color="#0AE754"/>
<stop offset="1" stop-color="#06812F"/>
</linearGradient>
<linearGradient id="paint4_linear_1012_31" x1="65" y1="53" x2="65" y2="91.6667" gradientUnits="userSpaceOnUse">
<stop stop-color="#0AE754"/>
<stop offset="1" stop-color="#06812F"/>
</linearGradient>
<linearGradient id="paint5_linear_1012_31" x1="77" y1="62" x2="77" y2="97.0417" gradientUnits="userSpaceOnUse">
<stop stop-color="#0AE754"/>
<stop offset="1" stop-color="#06812F"/>
</linearGradient>
<linearGradient id="paint6_linear_1012_31" x1="89" y1="74" x2="89" y2="121.125" gradientUnits="userSpaceOnUse">
<stop stop-color="#0AE754"/>
<stop offset="1" stop-color="#06812F"/>
</linearGradient>
<linearGradient id="paint7_linear_1012_31" x1="101" y1="86" x2="101" y2="123.458" gradientUnits="userSpaceOnUse">
<stop stop-color="#0AE754"/>
<stop offset="1" stop-color="#06812F"/>
</linearGradient>
<linearGradient id="paint8_linear_1012_31" x1="113" y1="94" x2="113" y2="129.042" gradientUnits="userSpaceOnUse">
<stop stop-color="#0AE754"/>
<stop offset="1" stop-color="#06812F"/>
</linearGradient>
<linearGradient id="paint9_linear_1012_31" x1="125" y1="75" x2="125" y2="120.917" gradientUnits="userSpaceOnUse">
<stop stop-color="#0AE754"/>
<stop offset="1" stop-color="#06812F"/>
</linearGradient>
<linearGradient id="paint10_linear_1012_31" x1="137" y1="73" x2="137" y2="99.5833" gradientUnits="userSpaceOnUse">
<stop stop-color="#0AE754"/>
<stop offset="1" stop-color="#06812F"/>
</linearGradient>
<linearGradient id="paint11_linear_1012_31" x1="149" y1="54" x2="149" y2="110.792" gradientUnits="userSpaceOnUse">
<stop stop-color="#0AE754"/>
<stop offset="1" stop-color="#06812F"/>
</linearGradient>
<linearGradient id="paint12_linear_1012_31" x1="161" y1="68" x2="161" y2="101.833" gradientUnits="userSpaceOnUse">
<stop stop-color="#0AE754"/>
<stop offset="1" stop-color="#06812F"/>
</linearGradient>
<linearGradient id="paint13_linear_1012_31" x1="173" y1="89" x2="173" y2="118" gradientUnits="userSpaceOnUse">
<stop stop-color="#0AE754"/>
<stop offset="1" stop-color="#06812F"/>
</linearGradient>
</defs>
</svg>
