<svg width="37" height="9" viewBox="0 0 37 9" fill="none" xmlns="http://www.w3.org/2000/svg">
<g clip-path="url(#clip0_1036_2)">
<path d="M8.7359 3.87V3.915C8.7359 4.3425 8.71252 4.6125 8.66575 4.725C8.5956 4.905 8.50206 5.04 8.33838 5.13C8.19807 5.22 8.03438 5.26522 7.82393 5.26522C7.61371 5.26522 7.44978 5.22022 7.30971 5.13C7.16918 5.04022 7.07587 4.905 7.00549 4.725C6.93534 4.5675 6.91219 4.2975 6.91219 3.8925V1.575H5.67283V3.915C5.69622 4.455 5.74299 4.8375 5.81314 5.085C5.95344 5.49022 6.18728 5.805 6.51466 6.05272C6.84203 6.27772 7.28633 6.39022 7.80078 6.39022C8.29184 6.39022 8.68937 6.30022 9.01675 6.0975C9.34389 5.89522 9.57773 5.625 9.74165 5.2425C9.85857 4.995 9.92872 4.545 9.92872 3.915V1.575H8.71252V3.87H8.7359ZM5.11138 0H3.89542V1.8225C3.87203 1.8225 3.84865 1.8 3.82526 1.8C3.42774 1.575 2.98344 1.4625 2.53914 1.4625C1.90778 1.4625 1.34656 1.665 0.855496 2.0925C0.29428 2.5875 0.0136719 3.195 0.0136719 3.915C0.0136719 4.59 0.270896 5.175 0.76196 5.6475C1.25302 6.12022 1.86077 6.3675 2.53914 6.3675C3.00682 6.3675 3.45112 6.255 3.84865 6.05272C4.24618 5.82772 4.55017 5.535 4.78401 5.15272C4.99446 4.81522 5.08823 4.455 5.11138 4.07272V3.91522V0ZM3.49765 4.905C3.24043 5.15272 2.93667 5.2875 2.53891 5.2875C2.16477 5.2875 1.83739 5.1525 1.60355 4.905C1.34633 4.6575 1.22941 4.32 1.22941 3.915C1.22941 3.5325 1.34633 3.195 1.60355 2.9475C1.86077 2.7 2.16477 2.565 2.53891 2.565C2.93644 2.565 3.24043 2.7 3.49765 2.9475C3.75511 3.195 3.87203 3.5325 3.87203 3.915C3.87203 4.32 3.75511 4.6575 3.49765 4.905ZM15.1431 2.7C14.9093 2.3175 14.6051 2.025 14.2078 1.8C13.8102 1.575 13.3659 1.4625 12.9216 1.4625C12.2903 1.4625 11.7288 1.665 11.238 2.0925C10.6768 2.5875 10.3959 3.1725 10.3959 3.915C10.3959 4.59 10.6534 5.175 11.1442 5.6475C11.6355 6.12022 12.2433 6.3675 12.9216 6.3675C13.3893 6.3675 13.8334 6.255 14.2311 6.05272C14.6287 5.82772 14.9327 5.535 15.1665 5.15272C15.4003 4.77022 15.5173 4.36522 15.5173 3.91522C15.4705 3.4875 15.377 3.0825 15.1431 2.7ZM13.8804 4.905C13.6232 5.15272 13.3192 5.2875 12.9216 5.2875C12.5241 5.2875 12.2201 5.1525 11.9863 4.905C11.7291 4.6575 11.6121 4.32 11.6121 3.915C11.6121 3.5325 11.7291 3.195 11.9865 2.9475C12.2437 2.7 12.5475 2.565 12.9219 2.565C13.3192 2.565 13.6234 2.7 13.8806 2.9475C14.1378 3.195 14.2548 3.5325 14.2548 3.915C14.2543 4.32 14.1142 4.6575 13.8804 4.905ZM19.7264 6.3H20.9657V1.7775H19.7264V6.3ZM17.6218 5.085C17.4815 4.99522 17.3646 4.86 17.3178 4.68C17.2711 4.545 17.2477 4.275 17.2477 3.87V0H16.0317V3.8475C16.0551 4.4775 16.1019 4.905 16.2188 5.175C16.3825 5.535 16.6163 5.8275 16.9437 6.03C17.2711 6.2325 17.6688 6.3225 18.1597 6.3225H19.095V5.22H18.1363C17.9258 5.22 17.7619 5.175 17.6218 5.085ZM25.7828 2.655C25.6192 2.295 25.3853 2.0025 25.0577 1.8C24.7306 1.5975 24.3328 1.5075 23.8417 1.5075C23.3039 1.5075 22.883 1.62 22.5556 1.845C22.2285 2.07 21.9946 2.385 21.8541 2.8125C21.7839 3.0375 21.7372 3.4425 21.7138 3.9825V6.3H22.9531V4.05V3.96C22.9531 3.5775 22.9768 3.285 23.0467 3.1275C23.1168 2.9475 23.2104 2.835 23.3507 2.7225C23.491 2.6325 23.6547 2.5875 23.8651 2.5875C24.0753 2.5875 24.2393 2.6325 24.3796 2.7225C24.5199 2.8125 24.6368 2.9475 24.7067 3.1275C24.7535 3.2625 24.7769 3.5325 24.7769 3.9375V6.3H25.9928V4.32V3.96C25.9699 3.3525 25.8998 2.9025 25.7828 2.655ZM20.311 0.09C19.9602 0.09 19.6562 0.3825 19.6562 0.72C19.6562 1.0575 19.9368 1.35 20.311 1.35C20.6617 1.35 20.9657 1.08 20.9657 0.72C20.9657 0.36 20.6617 0.09 20.311 0.09ZM36.6564 2.745C36.4226 2.3625 36.1183 2.07 35.721 1.845C35.3235 1.62 34.9026 1.53 34.4113 1.53C33.7098 1.53 33.1252 1.7775 32.6341 2.25C32.1428 2.7225 31.8858 3.3075 31.8858 3.9825C31.8858 4.7025 32.1664 5.30977 32.7277 5.805C33.219 6.2325 33.7799 6.435 34.4113 6.435C34.879 6.435 35.2999 6.3225 35.6974 6.0975C36.095 5.8725 36.4226 5.58 36.6328 5.1975C36.8666 4.81522 36.9835 4.41 36.9835 3.98272C37.0072 3.5325 36.8902 3.1275 36.6564 2.745ZM35.7676 3.9825C35.7676 4.3875 35.6507 4.7025 35.3934 4.95C35.1362 5.1975 34.8322 5.3325 34.4347 5.3325C34.0603 5.3325 33.7332 5.19727 33.4993 4.95C33.2419 4.7025 33.125 4.365 33.125 3.9825C33.125 3.5775 33.2419 3.24 33.4993 2.9925C33.7566 2.745 34.0603 2.61 34.4347 2.61C34.8088 2.61 35.1362 2.745 35.3934 2.9925C35.6507 3.24 35.7676 3.5775 35.7676 3.9825C35.7676 3.96 35.7676 3.96 35.7676 3.9825ZM31.4652 3.78C31.4415 3.3975 31.3246 3.06 31.1378 2.7225C30.9039 2.34 30.5999 2.0475 30.226 1.8225C29.8285 1.5975 29.4076 1.5075 28.9399 1.5075C28.2384 1.5075 27.6538 1.7325 27.1625 2.2275C26.6714 2.7 26.4376 3.285 26.4376 3.96C26.4376 4.68 26.7182 5.2875 27.256 5.76C27.7471 6.1875 28.2847 6.39022 28.9163 6.39022C29.3606 6.39022 29.8049 6.27772 30.2024 6.05272C30.226 6.03 30.2492 6.03 30.2726 6.00772V6.5475C30.2726 6.95272 30.1323 7.2675 29.8984 7.51523C29.6412 7.76273 29.3372 7.8975 28.9631 7.8975C28.5889 7.8975 28.2849 7.785 28.0277 7.5375L27.2327 8.3475L27.256 8.37C27.7471 8.79727 28.3083 9 28.9163 9C29.3606 9 29.8049 8.8875 30.2024 8.6625C30.5999 8.4375 30.9039 8.145 31.1378 7.7625C31.3716 7.38 31.4652 6.975 31.4652 6.5475V4.095V3.9375C31.4885 3.8925 31.4885 3.825 31.4652 3.78ZM30.2723 3.9375C30.2723 4.3425 30.1554 4.6575 29.8982 4.905C29.641 5.15272 29.337 5.2875 28.9628 5.2875C28.5887 5.2875 28.2847 5.1525 28.0275 4.905C27.7702 4.6575 27.6533 4.3425 27.6533 3.9375C27.6533 3.5325 27.7702 3.2175 28.0275 2.9475C28.2847 2.7 28.5887 2.565 28.9628 2.565C29.337 2.565 29.6644 2.7 29.8982 2.9475C30.1323 3.2175 30.2723 3.5325 30.2723 3.9375Z" fill="#808080"/>
</g>
<defs>
<clipPath id="clip0_1036_2">
<rect width="37" height="9" fill="white"/>
</clipPath>
</defs>
</svg>
