<svg width="31" height="12" viewBox="0 0 31 12" fill="none" xmlns="http://www.w3.org/2000/svg">
<path d="M8.4323 2.19545C8.42851 2.17118 8.41697 2.1489 8.3995 2.13211C8.38203 2.11531 8.35962 2.10495 8.33579 2.10267C8.29725 2.09633 7.45088 2.03617 7.45088 2.03617L6.80553 1.37338C6.74757 1.30688 6.61868 1.32652 6.56997 1.34045C6.5638 1.34045 6.44108 1.38003 6.24098 1.44685C6.04611 0.868617 5.70139 0.337883 5.09459 0.337883H5.04279C4.86858 0.106717 4.65583 0 4.47546 0C3.06206 0.00633333 2.38804 1.81703 2.17529 2.74233L1.18739 3.05362C0.8843 3.15273 0.872892 3.16002 0.832808 3.45673L0 10.0539L6.24313 11.254L9.62678 10.5048C9.62678 10.4985 8.43878 2.25878 8.43261 2.19608L8.4323 2.19545ZM5.89472 1.55832C5.73747 1.61152 5.55555 1.66472 5.36562 1.72457V1.60518C5.37178 1.30688 5.32769 1.00985 5.23673 0.726117C5.55308 0.77615 5.76583 1.14095 5.89472 1.55832ZM4.85563 0.80275C4.95893 1.1153 5.0098 1.44463 4.99685 1.77492V1.83445L3.90535 2.18278C4.11902 1.36357 4.51277 0.95855 4.85502 0.806234L4.85563 0.80275ZM4.4363 0.399633C4.50105 0.401217 4.56364 0.4218 4.61698 0.459167C4.16158 0.677033 3.68027 1.22677 3.47368 2.3275L2.61035 2.5992C2.85393 1.76383 3.42219 0.397734 4.43568 0.397734L4.4363 0.399633Z" fill="#808080"/>
<path d="M8.33587 2.10236C8.29733 2.09603 7.45096 2.03586 7.45096 2.03586L6.80562 1.37308C6.78187 1.34775 6.7495 1.33381 6.71527 1.3335L6.24414 11.2528L9.62779 10.5035L8.43269 2.20116C8.42467 2.1505 8.38582 2.10996 8.33618 2.10205L8.33587 2.10236Z" fill="#808080"/>
<path d="M5.09496 4.02507L4.67501 5.29807C4.42125 5.1714 4.14344 5.10395 3.86162 5.09857C3.20271 5.09857 3.17096 5.5229 3.17096 5.6293C3.17096 6.2088 4.64941 6.43174 4.64941 7.79784C4.64941 8.87197 3.98434 9.56167 3.09326 9.56167C2.02149 9.56167 1.47266 8.87862 1.47266 8.87862L1.75756 7.90329C1.75756 7.90329 2.31872 8.40045 2.79726 8.40045C2.85445 8.40277 2.91151 8.39313 2.96497 8.37211C3.01843 8.35109 3.06717 8.31913 3.10823 8.27817C3.14929 8.23721 3.18182 8.18811 3.20384 8.13385C3.22586 8.07958 3.23691 8.02129 3.23632 7.9625C3.23632 7.19934 2.02241 7.1664 2.02241 5.92C2.02241 4.87184 2.7581 3.85059 4.23686 3.85059C4.81807 3.85945 5.09588 4.02475 5.09588 4.02475L5.09496 4.02507Z" fill="#020300"/>
<path d="M12.5652 5.92143C12.3237 5.78843 12.1989 5.67348 12.1989 5.51609C12.1989 5.31659 12.3685 5.18771 12.6438 5.18771C12.8482 5.19226 13.0498 5.23754 13.2373 5.32103L13.46 4.62626C13.46 4.62626 13.2558 4.46413 12.6577 4.46413C11.8233 4.46413 11.2437 4.95496 11.2437 5.64466C11.2437 6.03479 11.5125 6.33499 11.8739 6.54906C12.1659 6.72323 12.2686 6.83849 12.2686 7.02026C12.2686 7.20203 12.1249 7.35371 11.8514 7.35371C11.4484 7.35371 11.0682 7.13964 11.0682 7.13964L10.832 7.83441C10.832 7.83441 11.1845 8.07698 11.7731 8.07698C12.6302 8.07698 13.2469 7.64378 13.2469 6.86098C13.2515 6.43728 12.9407 6.14214 12.5686 5.91826L12.5652 5.92143ZM15.9858 4.46001C15.564 4.46001 15.2304 4.66489 14.9751 4.98124L14.9609 4.97649L15.3272 3.00809H14.3729L13.4458 8.02093H14.4007L14.7204 6.30713C14.8456 5.65986 15.1715 5.25959 15.4758 5.25959C15.6886 5.25959 15.7725 5.40716 15.7725 5.62154C15.7725 5.76721 15.7583 5.91193 15.7308 6.05474L15.3695 8.01618H16.3244L16.6999 5.98951C16.7409 5.77956 16.7647 5.56644 16.7693 5.35301C16.7647 4.80074 16.4819 4.46761 15.9861 4.46761L15.9858 4.46001ZM18.9242 4.46001C17.7748 4.46001 17.0144 5.52654 17.0144 6.70834C17.0144 7.47024 17.4732 8.07951 18.331 8.07951C19.4586 8.07951 20.2223 7.04148 20.2223 5.83118C20.2223 5.12659 19.8193 4.46001 18.9258 4.46001H18.9242ZM18.4556 7.33059C18.1309 7.33059 17.9921 7.04559 17.9921 6.69409C17.9921 6.13233 18.274 5.21368 18.7944 5.21368C19.1327 5.21368 19.2455 5.51356 19.2455 5.80426C19.2443 6.40751 18.9619 7.33059 18.4562 7.33059H18.4556ZM22.6643 4.46001C22.0168 4.46001 21.6536 5.03888 21.6536 5.03888H21.6394L21.6958 4.51764H20.8501L20.6558 5.81756L19.9929 9.40729H20.9435L21.2081 7.95506H21.2266C21.2266 7.95506 21.4208 8.08363 21.7877 8.08363C22.9094 8.08363 23.6417 6.90309 23.6417 5.70989C23.6464 5.05281 23.3599 4.46286 22.6637 4.46286L22.6643 4.46001ZM21.751 7.34484C21.6069 7.34779 21.4667 7.29693 21.3564 7.20171L21.5142 6.28274C21.6271 5.67316 21.936 5.26371 22.2697 5.26371C22.5616 5.26371 22.6495 5.53984 22.6495 5.80204C22.6511 6.44076 22.2857 7.34516 21.7523 7.34516L21.751 7.34484ZM25.0101 3.05084C24.864 3.04989 24.7234 3.10943 24.6207 3.21614C24.518 3.32286 24.461 3.46758 24.4665 3.61768C24.4665 3.90711 24.6475 4.10851 24.9176 4.10851H24.9318C25.0055 4.11152 25.079 4.09898 25.1478 4.07168C25.2165 4.04438 25.2791 4.00289 25.3317 3.94977C25.3843 3.89666 25.4257 3.83304 25.4533 3.76285C25.481 3.69266 25.4944 3.61739 25.4927 3.54168C25.4927 3.25668 25.307 3.05084 25.0147 3.05084H25.0101ZM23.6763 8.01143H24.6312L25.2799 4.53759H24.3216M27.7133 4.53284H27.0464L27.079 4.37071C27.1355 4.03726 27.3294 3.73738 27.6427 3.73738C27.7465 3.73742 27.8497 3.75343 27.9488 3.78488L28.1332 3.01759C28.1332 3.01759 27.9636 2.93209 27.614 2.93209C27.2737 2.9234 26.9416 3.03987 26.6776 3.26048C26.3529 3.54548 26.1997 3.95524 26.1226 4.36976L26.0918 4.53189H25.6468L25.5075 5.26973H25.9524L25.4449 8.01206H26.4032L26.9107 5.26973H27.5693L27.6988 4.53189L27.7133 4.53284ZM30.0128 4.53759L29.1458 6.92748H29.1316L28.8954 4.53759H27.889L28.4641 7.72706C28.4779 7.78158 28.4713 7.83944 28.4456 7.88919C28.3207 8.12574 28.1428 8.32809 27.9263 8.47978C27.7605 8.59694 27.5795 8.69004 27.3886 8.75591L27.6532 9.58875C28.003 9.49259 28.3241 9.30882 28.5877 9.05389C29.0234 8.63463 29.4264 7.98736 29.8395 7.10639L31.0075 4.53569H30.0125L30.0128 4.53759Z" fill="#808080"/>
</svg>
