<svg width="29" height="9" viewBox="0 0 29 9" fill="none" xmlns="http://www.w3.org/2000/svg">
<path fill-rule="evenodd" clip-rule="evenodd" d="M3.08417 2.94H6.1675V0H0.0625V0.0300001L3.08417 2.94Z" fill="#808080"/>
<path fill-rule="evenodd" clip-rule="evenodd" d="M3.08333 2.93994H0V5.87994H6.105V5.84994L3.08333 2.93994Z" fill="#808080"/>
<path fill-rule="evenodd" clip-rule="evenodd" d="M0.03125 5.8501H3.08375V8.8201L0.03125 5.8501Z" fill="#808080"/>
<path d="M10.361 5.85012V4.23012H12.1801V3.48012H10.361V2.40012H12.3343V1.62012H9.4668V5.82012H10.361V5.85012Z" fill="#808080"/>
<path d="M14.6148 2.78998C14.5531 2.75998 14.4298 2.72998 14.2756 2.72998C13.9673 2.72998 13.7206 2.87998 13.5665 3.08998V2.78998H12.7031V5.84998H13.5665V3.95998C13.6281 3.68998 13.8748 3.53998 14.1523 3.53998C14.3065 3.53998 14.4606 3.56998 14.584 3.62998V2.78998H14.6148Z" fill="#808080"/>
<path d="M17.5137 5.84998V3.89998C17.5137 3.17998 17.0204 2.72998 16.1879 2.72998C15.4787 2.72998 14.9545 3.14998 14.862 3.71998H15.6945C15.7562 3.53998 15.9104 3.41998 16.157 3.41998C16.4962 3.41998 16.6812 3.62998 16.6812 3.89998V4.10998C16.5579 4.01998 16.2495 3.92998 15.972 3.92998C15.2937 3.92998 14.7695 4.31998 14.7695 4.91998C14.7695 5.54998 15.2937 5.90998 15.9412 5.90998C16.2804 5.90998 16.5887 5.78998 16.712 5.69998V5.84998H17.5137ZM16.6812 5.00998C16.5887 5.15998 16.3729 5.27998 16.1262 5.27998C15.8487 5.27998 15.5712 5.15998 15.5712 4.88998C15.5712 4.61998 15.8487 4.49998 16.1262 4.49998C16.3729 4.49998 16.6195 4.58998 16.6812 4.76998V5.00998Z" fill="#808080"/>
<path d="M20.5971 3.11998C20.4121 2.87998 20.1346 2.72998 19.7646 2.72998C19.4254 2.72998 19.1171 2.84998 18.9629 3.05998V2.81998H18.0996V5.87998H18.9629V3.89998C19.0246 3.62998 19.2404 3.50998 19.4563 3.50998C19.7646 3.50998 19.8879 3.71998 19.8879 4.04998V5.87998H20.7513V3.89998C20.8129 3.62998 20.9979 3.50998 21.2446 3.50998C21.5529 3.50998 21.7071 3.71998 21.7071 4.04998V5.87998H22.5704V3.86998C22.5704 3.17998 22.1696 2.72998 21.5221 2.72998C21.1213 2.72998 20.8129 2.90998 20.5971 3.11998Z" fill="#808080"/>
<path d="M25.0674 4.85998C25.0057 5.12998 24.7899 5.24998 24.4815 5.24998C24.0807 5.24998 23.834 4.97998 23.8032 4.52998H25.8999V4.25998C25.8999 3.35998 25.4065 2.72998 24.4815 2.72998C23.6182 2.72998 22.9707 3.41998 22.9707 4.31998C22.9707 5.24998 23.5874 5.90998 24.4815 5.90998C25.2832 5.90998 25.7457 5.48998 25.869 4.82998H25.0674V4.85998ZM24.4815 3.41998C24.8515 3.41998 25.0365 3.65998 25.0365 3.98998H23.834C23.9265 3.62998 24.1424 3.41998 24.4815 3.41998Z" fill="#808080"/>
<path d="M28.2124 2.78998C28.1508 2.75998 28.0274 2.72998 27.8733 2.72998C27.5649 2.72998 27.3183 2.87998 27.1641 3.08998V2.78998H26.3008V5.84998H27.1641V3.95998C27.2258 3.68998 27.4724 3.53998 27.7499 3.53998C27.9041 3.53998 28.0583 3.56998 28.1816 3.62998V2.78998H28.2124Z" fill="#808080"/>
</svg>
