<svg width="37" height="9" viewBox="0 0 37 9" fill="none" xmlns="http://www.w3.org/2000/svg">
<g clip-path="url(#clip0_1041_48)">
<path d="M14.5762 3.24408H15.7448V6.89783H14.5762V3.24408Z" fill="#808080"/>
<mask id="mask0_1041_48" style="mask-type:luminance" maskUnits="userSpaceOnUse" x="0" y="0" width="37" height="9">
<path d="M0 3.8743e-07H37V9H0V3.8743e-07Z" fill="white"/>
</mask>
<g mask="url(#mask0_1041_48)">
<path d="M15.9883 3.24408H17.1139V3.74362H17.1354C17.4078 3.35111 17.7591 3.13705 18.2682 3.13705C19.0712 3.13705 19.5444 3.70794 19.5444 4.52147V6.89783H18.3757V4.75698C18.3757 4.3716 18.1822 4.10754 17.8022 4.10754C17.415 4.10754 17.1569 4.4287 17.1569 4.87826V6.89783H15.9883V3.24408Z" fill="#808080"/>
<path d="M15.861 2.26652C15.861 1.88114 15.5471 1.56877 15.16 1.56877C14.7729 1.56877 14.459 1.88114 14.459 2.26652C14.459 2.65186 14.7729 2.96423 15.16 2.96423C15.5471 2.96423 15.861 2.65186 15.861 2.26652Z" fill="#808080"/>
<path d="M27.762 3.19134C27.7286 3.18835 27.6904 3.18702 27.6456 3.18702C27.2011 3.18702 26.9 3.37969 26.6419 3.815H26.6204V3.24412H25.502V6.89783H26.6706V5.25652C26.6706 4.49602 27.0937 4.14361 27.762 4.2051V3.19134Z" fill="#808080"/>
<path d="M33.4981 4.59276C33.0321 4.50715 32.6163 4.47148 32.6163 4.21458C32.6163 3.9862 32.8385 3.87917 33.1253 3.87917C33.4479 3.87917 33.6702 3.97907 33.7132 4.30735H34.7887C34.7313 3.5866 34.1721 3.13699 33.1325 3.13699C32.265 3.13699 31.548 3.53663 31.548 4.30735C31.548 5.16365 32.2291 5.33494 32.8672 5.442C33.3547 5.52765 33.7992 5.56332 33.7992 5.89157C33.7992 6.12708 33.577 6.25553 33.2257 6.25553C32.8732 6.25553 32.6401 6.1071 32.5687 5.80596H31.4551C31.537 6.55707 32.1994 7.01196 33.2329 7.01196C34.1936 7.01196 34.9033 6.59807 34.9033 5.79883C34.9033 4.86395 34.1434 4.69983 33.4981 4.59276Z" fill="#808080"/>
<path d="M29.5751 3.96483C29.9551 3.96483 30.2275 4.24314 30.2705 4.67849H28.8223C28.9011 4.24314 29.1306 3.96483 29.5751 3.96483ZM29.6396 6.1699C29.1592 6.1699 28.8868 5.86307 28.8151 5.37066H31.4535C31.4607 4.62852 31.2456 3.99337 30.8082 3.59377C30.4928 3.30833 30.0769 3.13704 29.5535 3.13704C28.4351 3.13704 27.668 3.97195 27.668 5.06383C27.668 6.1699 28.4136 7.00488 29.6252 7.00488C30.0912 7.00488 30.4641 6.88356 30.7724 6.66947C31.095 6.44825 31.3101 6.13426 31.3889 5.80601H30.249C30.1486 6.03436 29.9479 6.1699 29.6396 6.1699Z" fill="#808080"/>
<path d="M36.9603 6.03628C36.9062 6.03841 36.8335 6.04154 36.7667 6.04154C36.5157 6.04154 36.358 5.97015 36.358 5.68471V3.97201H36.9603V3.24412H36.358V2.08805H35.2181V3.24412H34.8594V3.97201H35.2181V5.93447C35.2181 6.71949 35.7056 6.94067 36.3867 6.94067C36.6466 6.94067 36.843 6.92131 36.9603 6.89852V6.03628Z" fill="#808080"/>
<path d="M21.6302 6.03794C21.5836 6.03974 21.5298 6.04154 21.4795 6.04154C21.2286 6.04154 21.0709 5.97015 21.0709 5.68471V3.97201H21.6302V3.24412H21.0709V2.08805H19.9309V3.24412H19.5508V3.97201H19.9309V5.93447C19.9309 6.71949 20.4184 6.94067 21.0995 6.94067C21.33 6.94067 21.5104 6.92541 21.6302 6.90608V6.03794Z" fill="#808080"/>
<path d="M24.1768 4.67849C24.1338 4.24318 23.8613 3.96483 23.4813 3.96483C23.0368 3.96483 22.8074 4.24318 22.7285 4.67849H24.1768ZM21.5742 5.06383C21.5742 3.97199 22.3413 3.13708 23.4598 3.13708C23.9832 3.13708 24.399 3.30833 24.7145 3.59377C25.1518 3.99341 25.3669 4.62852 25.3597 5.3707H22.7214C22.793 5.86307 23.0655 6.16993 23.5459 6.16993C23.8541 6.16993 24.0549 6.03436 24.1552 5.80601H25.2952C25.2163 6.13426 25.0013 6.44825 24.6786 6.66951C24.3703 6.88356 23.9975 7.00488 23.5315 7.00488C22.3198 7.00488 21.5742 6.16993 21.5742 5.06383Z" fill="#808080"/>
<path d="M12.5462 4.19322C13.005 4.19322 13.2631 3.92203 13.2631 3.51523C13.2631 3.1085 12.9978 2.85873 12.5462 2.85873H11.6499V4.19322H12.5462ZM10.4668 1.79544H12.4962C13.1199 1.79544 13.5788 1.96669 13.8942 2.26643C14.2241 2.57326 14.4105 3.0086 14.4105 3.52239C14.4105 4.50005 13.7293 5.19229 12.6754 5.19229H11.6499V6.89783H10.4668V1.79544Z" fill="#808080"/>
<path d="M8.86155 4.50001C8.86155 6.92548 6.88612 8.89172 4.44933 8.89172C2.01254 8.89172 0.0371094 6.92548 0.0371094 4.50001C0.0371094 2.07451 2.01254 0.1083 4.44933 0.1083C6.88612 0.1083 8.86155 2.07451 8.86155 4.50001Z" fill="#020300"/>
<path d="M4.44933 0.108056C2.01254 0.108056 0.0371094 2.0743 0.0371094 4.49977C0.0371094 6.36032 1.2001 7.95084 2.84141 8.59074C2.80285 8.24326 2.76798 7.70888 2.8567 7.32955C2.93689 6.98679 3.37409 5.14658 3.37409 5.14658C3.37409 5.14658 3.24211 4.88349 3.24211 4.49455C3.24211 3.88388 3.59772 3.42798 4.04049 3.42798C4.41693 3.42798 4.59874 3.70928 4.59874 4.0466C4.59874 4.42341 4.35772 4.98678 4.23334 5.50885C4.12939 5.94596 4.45356 6.30243 4.88671 6.30243C5.67091 6.30243 6.27372 5.4794 6.27372 4.29136C6.27372 3.23984 5.51463 2.50465 4.43071 2.50465C3.17527 2.50465 2.43838 3.44191 2.43838 4.41052C2.43838 4.78798 2.58447 5.19273 2.76675 5.41276C2.80281 5.45625 2.80809 5.49434 2.79735 5.53873C2.76386 5.67744 2.68943 5.97573 2.67482 6.03679C2.65557 6.11718 2.61087 6.13424 2.52725 6.0955C1.97619 5.84019 1.63165 5.03826 1.63165 4.39414C1.63165 3.00879 2.64291 1.73652 4.54699 1.73652C6.07759 1.73652 7.26705 2.82213 7.26705 4.27297C7.26705 5.78652 6.30827 7.00461 4.9775 7.00461C4.53038 7.00461 4.11007 6.77342 3.9662 6.50032C3.9662 6.50032 3.74496 7.33884 3.69132 7.54432C3.59171 7.92578 3.3228 8.40393 3.14294 8.69564C3.55576 8.82286 3.99448 8.89148 4.44933 8.89148C6.88616 8.89148 8.86159 6.92523 8.86159 4.49977C8.86159 2.0743 6.88616 0.108056 4.44933 0.108056Z" fill="#808080"/>
</g>
</g>
<defs>
<clipPath id="clip0_1041_48">
<rect width="37" height="9" fill="white"/>
</clipPath>
</defs>
</svg>
