<svg width="37" height="37" viewBox="0 0 37 37" fill="none" xmlns="http://www.w3.org/2000/svg">
<g clip-path="url(#clip0_1041_88)">
<path d="M16.7625 19.4004H17.518L17.5164 17.1619H16.7625V16.6654H19.7534V17.1619H19.0087V19.3988H19.701C20.3407 19.3988 20.7601 18.9764 20.7601 18.4029H21.2534V19.9014H16.7625V19.4004ZM23.4117 19.9045H25.16L26.6431 17.1619H27.3862V16.6654H25.1507V17.1619H25.7967L24.716 19.1583L23.6214 17.1619H24.4077L24.4046 16.6654H21.1609V17.1619H21.904L23.4117 19.9045ZM7.82087 16.6654H4.57567V17.1619H5.31721L6.82804 19.9045H8.57475L10.0578 17.1619H10.8009V16.6654H8.5655V17.1619H9.20992L8.13075 19.1583L7.03617 17.1619H7.82087V16.6654ZM13.5358 16.5976C15.039 16.5976 15.8452 17.3469 15.8452 18.2873C15.8452 19.24 15.0837 20.0001 13.5435 20.0001C12.0034 20.0001 11.2357 19.24 11.2357 18.2873C11.2357 17.3469 12.0327 16.5976 13.5358 16.5976ZM13.562 17.1064C13.0487 17.0986 12.7496 17.6429 12.7388 18.2672C12.7295 18.8685 12.97 19.4759 13.5189 19.4851C14.0831 19.4959 14.3267 18.8839 14.336 18.295C14.3483 17.6706 14.077 17.1171 13.562 17.1079V17.1064ZM30.1165 16.5976C31.618 16.5976 32.4243 17.3469 32.4243 18.2873C32.4243 19.24 31.6643 20.0001 30.1242 20.0001C28.5825 20.0001 27.8147 19.24 27.8147 18.2873C27.8147 17.3469 28.6133 16.5976 30.1165 16.5976ZM29.3194 18.2672C29.3086 18.8685 29.5507 19.4759 30.0995 19.4851C30.6637 19.4959 30.9073 18.8839 30.9166 18.295C30.9289 17.6706 30.6576 17.1171 30.1427 17.1079C29.6293 17.0986 29.3302 17.6429 29.3194 18.2672ZM33.724 7.98894L31.8447 9.86669C33.5118 12.4371 34.3966 15.4363 34.3915 18.5C34.3915 27.2767 27.2767 34.3915 18.5 34.3915C9.72329 34.3915 2.6085 27.2767 2.6085 18.5C2.6085 9.72331 9.72329 2.60852 18.5 2.60852C21.6912 2.60852 24.6605 3.54894 27.1503 5.16769L29.0296 3.2884C25.9382 1.14199 22.2634 -0.00564298 18.5 2.08636e-05C8.28338 2.08636e-05 0 8.2834 0 18.5C0 28.7166 8.28338 37 18.5 37C28.7166 37 37 28.7166 37 18.5C37 14.595 35.7898 10.9736 33.724 7.98894ZM27.8055 0.727688V1.24723C28.9278 1.85465 29.9839 2.57152 30.9613 3.37781L28.325 6.01406C29.3199 6.79435 30.2178 7.69076 30.9998 8.68423L33.633 6.05106C34.4408 7.03156 35.1577 8.08915 35.7667 9.19298H36.2723V0.729229L27.8055 0.727688Z" fill="#808080"/>
</g>
<defs>
<clipPath id="clip0_1041_88">
<rect width="37" height="37" fill="white"/>
</clipPath>
</defs>
</svg>
