<svg width="228" height="50" viewBox="0 0 228 50" fill="none" xmlns="http://www.w3.org/2000/svg">
<g clip-path="url(#clip0_131_79)">
<path d="M39.9242 24.0078C37.9846 25.1832 35.7569 25.8014 33.4871 25.794C31.5856 25.7791 29.7055 25.3914 27.9541 24.653C26.6042 26.5527 25.8818 28.8247 25.8873 31.1528V37.0983C25.8878 37.3194 25.8427 37.5382 25.7547 37.7412C25.6668 37.9442 25.538 38.127 25.3762 38.2783C25.2144 38.4295 25.0232 38.546 24.8143 38.6204C24.6055 38.6949 24.3835 38.7258 24.1622 38.7111C23.7464 38.6751 23.3596 38.4835 23.0795 38.1751C22.7993 37.8666 22.6465 37.464 22.6516 37.0479V34.5399L14.8414 26.7537C13.6804 27.1855 12.4525 27.4114 11.2134 27.421C9.50748 27.4254 7.83345 26.9601 6.37597 26.0763C1.96937 23.407 -0.402808 17.264 0.0562576 9.63714C0.0793712 9.24253 0.247016 8.87015 0.527364 8.59068C0.807709 8.31117 1.18124 8.14408 1.57704 8.12102C9.22748 7.67141 15.3895 10.0283 18.0589 14.4213C19.1077 16.1432 19.5656 18.1587 19.3633 20.1631C19.3507 20.3184 19.2933 20.4667 19.198 20.5902C19.1026 20.7136 18.9734 20.8069 18.8261 20.8587C18.6786 20.9106 18.5194 20.9187 18.3674 20.8822C18.2155 20.8457 18.0774 20.7661 17.9699 20.653L14.0871 16.6007C13.7812 16.311 13.3739 16.1518 12.952 16.1572C12.5301 16.1626 12.1271 16.3321 11.8287 16.6295C11.5304 16.9269 11.3604 17.3287 11.355 17.7493C11.3496 18.1699 11.5092 18.576 11.7999 18.8809L22.6961 30.0198C22.7082 29.8625 22.7224 29.7052 22.7385 29.55C23.0923 26.5597 24.4159 23.7663 26.5082 21.5945L36.739 10.8165C37.0426 10.5142 37.2133 10.1039 37.2134 9.67612C37.2136 9.2483 37.0434 8.83796 36.7401 8.53534C36.4367 8.23267 36.0252 8.06257 35.5961 8.06238C35.167 8.06218 34.7553 8.23194 34.4518 8.53432L24.5424 18.9817C24.4433 19.0864 24.3177 19.1628 24.1789 19.2028C24.0401 19.2428 23.8931 19.245 23.7532 19.2092C23.6132 19.1734 23.4854 19.1009 23.3831 18.9992C23.2808 18.8975 23.2077 18.7703 23.1713 18.6309C22.2127 15.1067 22.6354 11.5988 24.4656 8.58675C28.0775 2.6433 36.4822 -0.538088 46.9497 0.0748033C47.3455 0.097846 47.719 0.264975 47.9994 0.544461C48.2797 0.823942 48.4474 1.19633 48.4705 1.5909C49.0772 12.0282 45.886 20.407 39.9242 24.0078Z" fill="#008000"/>
<path d="M8.0893 32.2584C7.66022 32.2584 7.24872 32.4283 6.94527 32.7308C6.64187 33.0333 6.47144 33.4435 6.47144 33.8712C6.47144 34.299 6.64187 34.7092 6.94527 35.0117C7.24872 35.3142 7.66022 35.4841 8.0893 35.4841H10.0287L12.7002 47.4738C12.856 48.1922 13.2551 48.8354 13.8302 49.2952C14.4054 49.7554 15.1217 50.0039 15.859 50H29.4429C30.18 50.0034 30.896 49.7544 31.471 49.2947C32.046 48.8345 32.4452 48.1919 32.6018 47.4738L35.2732 35.4841H37.2106C37.6397 35.4841 38.0512 35.3142 38.3546 35.0117C38.658 34.7092 38.8285 34.299 38.8285 33.8712C38.8285 33.4435 38.658 33.0333 38.3546 32.7308C38.0512 32.4283 37.6397 32.2584 37.2106 32.2584H8.0893Z" fill="#008000"/>
<path d="M74.6437 33.3212C74.334 34.5883 73.8412 35.7147 73.1655 36.7003C72.4898 37.6859 71.6728 38.5166 70.7155 39.1924C69.7582 39.8682 68.7019 40.3751 67.5475 40.713C66.3932 41.0791 65.182 41.2621 63.915 41.2621C62.3097 41.2621 60.916 41.0087 59.7335 40.5018C58.5505 39.9668 57.5509 39.2628 56.7344 38.3898C55.9456 37.5169 55.3543 36.5172 54.9602 35.3909C54.566 34.2645 54.3689 33.0959 54.3689 31.885C54.3689 30.9557 54.4815 30.0124 54.7068 29.0549C54.9602 28.0976 55.3262 27.2105 55.8048 26.3939C56.2839 25.5491 56.8752 24.8169 57.5791 24.1975C58.3111 23.578 59.1558 23.1414 60.1136 22.888C58.7616 22.0432 57.7762 21.0717 57.1568 19.9735C56.5655 18.8753 56.2699 17.7208 56.2699 16.5099C56.2699 15.5525 56.4529 14.6091 56.8189 13.6798C57.1849 12.7224 57.7199 11.8917 58.4237 11.1878C59.1558 10.4556 60.0432 9.86421 61.0849 9.41368C62.1548 8.96315 63.366 8.73785 64.7174 8.73785C65.5339 8.73785 66.3087 8.8364 67.0407 9.03353C67.7728 9.20247 68.4204 9.49815 68.9835 9.92057C69.5471 10.343 69.9975 10.8921 70.3354 11.5679C70.6733 12.2156 70.8422 13.0181 70.8422 13.9755C70.8422 14.9611 70.6592 15.82 70.2932 16.5521C69.9271 17.2843 69.3781 17.6503 68.6456 17.6503C68.3359 17.6503 67.998 17.5799 67.632 17.4392C67.266 17.2702 66.8859 16.9886 66.4917 16.5944C66.8859 16.4536 67.1956 16.1016 67.4208 15.5384C67.6742 14.947 67.8009 14.3557 67.8009 13.7643C67.8009 13.2293 67.7024 12.7928 67.5053 12.4549C67.3364 12.117 67.1111 11.8636 66.8296 11.6946C66.548 11.4975 66.2524 11.3708 65.9427 11.3145C65.6325 11.2581 65.3509 11.23 65.0975 11.23C64.4781 11.23 63.9432 11.3567 63.4927 11.6101C63.0422 11.8636 62.6762 12.2015 62.3941 12.6239C62.1126 13.0463 61.9014 13.5391 61.7606 14.1023C61.6199 14.6654 61.5495 15.2427 61.5495 15.8341C61.5495 16.6225 61.6621 17.3829 61.8873 18.115C62.1126 18.8471 62.4504 19.523 62.9014 20.1425C63.3801 20.762 63.9713 21.3111 64.6752 21.7898C65.3791 22.2404 66.2102 22.5924 67.1674 22.8458C66.2665 23.0711 65.4636 23.4794 64.7597 24.0707C64.0558 24.6339 63.4645 25.3238 62.9859 26.1404C62.5354 26.9289 62.183 27.7878 61.9296 28.717C61.7043 29.6463 61.5917 30.5474 61.5917 31.4204C61.5917 32.1807 61.6903 32.9128 61.8873 33.6168C62.0844 34.3208 62.3801 34.9403 62.7747 35.4753C63.197 35.9822 63.7179 36.4046 64.3373 36.7425C64.9849 37.0523 65.7597 37.2072 66.6606 37.2072C67.3364 37.2072 68.0403 37.1086 68.7723 36.9115C69.5048 36.7144 70.1806 36.4328 70.8 36.0667C71.4475 35.7006 72.0106 35.2501 72.4898 34.715C72.9966 34.18 73.3626 33.5746 73.5878 32.8987L74.6437 33.3212Z" fill="#008000"/>
<path d="M83.6942 25.9293C83.7505 25.704 83.7787 25.5069 83.7787 25.3379C83.8068 25.169 83.8209 24.9437 83.8209 24.6621C83.8209 23.5075 83.652 22.6768 83.3141 22.1699C83.0044 21.6631 82.5961 21.4096 82.0894 21.4096C81.5258 21.4096 81.033 21.7053 80.6107 22.2967C80.2165 22.8598 79.8787 23.592 79.5971 24.4931C79.3437 25.3661 79.1466 26.3516 79.0059 27.4499C78.8932 28.5481 78.8369 29.6181 78.8369 30.66C78.8369 31.9835 78.9214 33.0677 79.0903 33.9125C79.2874 34.7573 79.569 35.419 79.935 35.8977C80.301 36.3764 80.7515 36.7144 81.2864 36.9115C81.85 37.1086 82.4835 37.2072 83.1874 37.2072C84.0321 37.2072 84.7641 37.0945 85.384 36.8692C86.0316 36.644 86.6088 36.3483 87.1156 35.9822C87.6224 35.588 88.0869 35.1374 88.5097 34.6306C88.9321 34.0955 89.3403 33.5323 89.7345 32.941H91.1704C90.7762 33.9265 90.2976 34.884 89.7345 35.8132C89.1995 36.7425 88.5238 37.5732 87.7068 38.3054C86.9185 39.0375 85.9753 39.6289 84.8767 40.0794C83.8068 40.53 82.5539 40.7552 81.1175 40.7552C79.935 40.7552 78.8369 40.5863 77.8228 40.2484C76.8093 39.8823 75.9224 39.3191 75.1617 38.5588C74.4296 37.7703 73.8525 36.7566 73.4301 35.5176C73.036 34.2786 72.8389 32.7861 72.8389 31.0402C72.8389 29.8575 72.9515 28.5763 73.1767 27.1964C73.4301 25.7884 73.8806 24.4931 74.5282 23.3104C75.1762 22.1277 76.0491 21.1421 77.1471 20.3537C78.2733 19.5652 79.7238 19.171 81.4976 19.171C82.5961 19.171 83.4971 19.3259 84.201 19.6356C84.9335 19.9453 85.5107 20.3396 85.933 20.8183C86.3554 21.2689 86.651 21.7757 86.8199 22.3389C86.9889 22.8739 87.0733 23.3949 87.0733 23.9018C87.0733 24.6339 86.9185 25.2394 86.6088 25.718C86.3272 26.1968 85.933 26.4361 85.4262 26.4361C85.201 26.4361 84.9335 26.3939 84.6233 26.3094C84.3136 26.2249 84.0039 26.0982 83.6942 25.9293Z" fill="#008000"/>
<path d="M98.0466 19.171C99.9898 19.171 101.538 19.706 102.693 20.7761C103.848 21.8179 104.594 23.5075 104.932 25.8448H105.227C105.622 25.8448 106.058 25.7744 106.537 25.6336C107.044 25.4928 107.565 25.3097 108.1 25.0845C108.635 24.8592 109.156 24.5917 109.663 24.2819C110.169 23.9722 110.62 23.6483 111.014 23.3104L111.648 24.4509C111.338 24.9014 110.944 25.3097 110.465 25.6758C110.015 26.0419 109.494 26.3798 108.902 26.6896C108.311 26.9712 107.691 27.2246 107.044 27.4499C106.396 27.647 105.749 27.8019 105.101 27.9145C105.129 28.1116 105.143 28.3087 105.143 28.5059C105.143 28.6748 105.143 28.8579 105.143 29.0549C105.143 30.6882 105.002 32.2229 104.72 33.6591C104.439 35.067 103.96 36.3061 103.285 37.3761C102.637 38.418 101.792 39.2487 100.75 39.8682C99.7083 40.4596 98.4267 40.7552 96.9064 40.7552C95.8646 40.7552 94.8646 40.6004 93.9073 40.2906C92.9782 39.9527 92.1471 39.4177 91.4151 38.6855C90.6831 37.9252 90.0918 36.9396 89.6413 35.7288C89.2185 34.4897 89.0073 32.9832 89.0073 31.2092C89.0073 29.9983 89.134 28.703 89.3879 27.3231C89.6413 25.9152 90.1059 24.6058 90.7816 23.3949C91.4573 22.184 92.3724 21.1844 93.5272 20.3959C94.7098 19.5793 96.2165 19.171 98.0466 19.171ZM98.0889 36.7847C98.6801 36.7847 99.1874 36.5877 99.6098 36.1934C100.06 35.771 100.426 35.2078 100.708 34.5038C100.989 33.7717 101.186 32.9128 101.299 31.9272C101.44 30.9416 101.51 29.8716 101.51 28.717V28.0835C100.806 27.9427 100.356 27.6751 100.159 27.2809C99.9617 26.8867 99.8632 26.4502 99.8632 25.9715C99.8632 25.3801 99.9617 24.9296 100.159 24.6198C100.356 24.3101 100.609 24.0989 100.919 23.9863C100.609 23.0288 100.229 22.4093 99.7787 22.1277C99.3564 21.8461 98.9899 21.7053 98.6801 21.7053C98.0607 21.7053 97.5258 22.001 97.0753 22.5924C96.653 23.1555 96.301 23.8877 96.0195 24.7888C95.7374 25.6617 95.5263 26.6332 95.3855 27.7033C95.2729 28.7734 95.2165 29.8012 95.2165 30.7868C95.2165 32.054 95.301 33.0818 95.4699 33.8702C95.667 34.6587 95.9068 35.2642 96.1884 35.6865C96.4699 36.1089 96.7797 36.4046 97.1175 36.5736C97.4554 36.7144 97.7792 36.7847 98.0889 36.7847Z" fill="#008000"/>
<path d="M108.288 11.7791L114.37 10.9343V20.4382C115.131 19.9031 115.75 19.5652 116.229 19.4244C116.707 19.2554 117.186 19.171 117.665 19.171C118.679 19.171 119.594 19.3963 120.41 19.8468C121.255 20.2692 121.973 20.9028 122.565 21.7476C123.184 22.5924 123.663 23.6484 124.001 24.9155C124.339 26.1546 124.508 27.5766 124.508 29.1817C124.508 30.4207 124.381 31.7302 124.128 33.11C123.874 34.4616 123.395 35.7147 122.691 36.8692C122.016 37.9956 121.072 38.9249 119.861 39.657C118.679 40.3892 117.144 40.7552 115.257 40.7552C112.864 40.7552 111.09 40.1639 109.935 38.9812C108.809 37.7985 108.246 36.2075 108.246 34.2082L108.288 11.7791ZM120.157 29.5618C120.157 27.2809 119.833 25.4928 119.185 24.1975C118.538 22.9021 117.665 22.2545 116.566 22.2545C116.229 22.2545 115.834 22.3249 115.384 22.4656C114.933 22.5783 114.596 22.7613 114.37 23.0148V34.1659C114.37 35.067 114.567 35.7147 114.962 36.1089C115.356 36.475 115.863 36.6581 116.482 36.6581C117.215 36.6581 117.82 36.4469 118.299 36.0245C118.777 35.5739 119.143 35.0107 119.397 34.3349C119.678 33.6309 119.875 32.8706 119.988 32.054C120.1 31.2092 120.157 30.3785 120.157 29.5618Z" fill="#008000"/>
<path d="M133.139 19.3822V22.001C133.758 21.2689 134.448 20.6212 135.208 20.058C135.969 19.4666 136.8 19.171 137.701 19.171C138.236 19.171 138.714 19.2836 139.136 19.5089C139.587 19.7342 139.968 20.0298 140.277 20.3959C140.615 20.762 140.869 21.1703 141.037 21.6209C141.235 22.0432 141.333 22.4797 141.333 22.9303C141.333 23.5498 141.136 24.127 140.742 24.6621C140.376 25.1689 139.756 25.4224 138.883 25.4224C138.236 25.4224 137.785 25.2816 137.532 25C137.278 24.7184 137.081 24.4227 136.94 24.1129C136.8 23.775 136.645 23.4653 136.476 23.1837C136.335 22.9021 136.068 22.7613 135.673 22.7613C135.251 22.7613 134.828 22.9303 134.406 23.2682C134.012 23.578 133.589 23.9722 133.139 24.4509V40.5018H127.056V19.3822H133.139Z" fill="#008000"/>
<path d="M152.568 37.2072C153.413 37.2072 154.159 37.0945 154.806 36.8692C155.454 36.644 156.032 36.3483 156.538 35.9822C157.045 35.588 157.51 35.1374 157.932 34.6306C158.354 34.0955 158.763 33.5323 159.157 32.941H160.593C160.199 33.9265 159.72 34.884 159.157 35.8132C158.622 36.7425 157.946 37.5732 157.13 38.3054C156.341 39.0375 155.412 39.6289 154.342 40.0794C153.272 40.53 152.019 40.7552 150.583 40.7552C149.372 40.7552 148.259 40.5722 147.246 40.2062C146.232 39.8401 145.345 39.2769 144.585 38.5166C143.852 37.7281 143.275 36.7284 142.853 35.5176C142.458 34.2786 142.261 32.8002 142.261 31.0825C142.261 29.8716 142.388 28.5763 142.642 27.1964C142.923 25.7884 143.402 24.4931 144.078 23.3104C144.753 22.1277 145.669 21.1421 146.823 20.3537C147.978 19.5652 149.442 19.171 151.216 19.171C152.568 19.171 153.61 19.3822 154.342 19.8046C155.074 20.2269 155.609 20.7197 155.947 21.2829C156.313 21.8461 156.524 22.3952 156.581 22.9303C156.665 23.4653 156.707 23.8454 156.707 24.0707C156.707 25.3379 156.468 26.4502 155.989 27.4076C155.538 28.365 154.919 29.1817 154.131 29.8575C153.37 30.5052 152.484 31.012 151.469 31.3781C150.484 31.7161 149.47 31.9131 148.428 31.9695C148.456 33.8562 148.766 35.2078 149.358 36.0245C149.977 36.8129 151.047 37.2072 152.568 37.2072ZM153.455 24.1129C153.455 23.1274 153.286 22.4375 152.948 22.0432C152.61 21.6209 152.244 21.4096 151.85 21.4096C151.371 21.4096 150.935 21.649 150.54 22.1277C150.146 22.5783 149.794 23.1978 149.485 23.9863C149.203 24.7465 148.963 25.6477 148.766 26.6896C148.597 27.7314 148.485 28.8156 148.428 29.942C149.132 29.8857 149.794 29.7026 150.414 29.3929C151.033 29.0549 151.568 28.6326 152.019 28.1257C152.469 27.5907 152.821 26.9852 153.075 26.3094C153.328 25.6336 153.455 24.9014 153.455 24.1129Z" fill="#008000"/>
<path d="M176.551 19.3822V33.7435C176.551 34.9263 176.706 35.7147 177.016 36.1089C177.353 36.475 177.931 36.658 178.747 36.658C179.564 36.658 180.24 36.3061 180.775 35.6021C181.338 34.898 181.662 34.0111 181.746 32.941H183.52C183.295 34.6587 182.901 36.0385 182.337 37.0804C181.774 38.0942 181.141 38.8827 180.437 39.4458C179.733 39.9809 179.015 40.3329 178.283 40.5018C177.551 40.6708 176.903 40.7552 176.34 40.7552C174.847 40.7552 173.707 40.4173 172.918 39.7415C172.158 39.0375 171.623 38.0801 171.313 36.8692C171.088 37.3479 170.82 37.8266 170.511 38.3054C170.201 38.7559 169.821 39.1643 169.37 39.5303C168.948 39.8964 168.441 40.1921 167.85 40.4173C167.286 40.6426 166.625 40.7552 165.864 40.7552C164.963 40.7552 164.076 40.5863 163.203 40.2484C162.33 39.9105 161.528 39.3613 160.796 38.6011C160.092 37.8408 159.514 36.8411 159.064 35.6021C158.641 34.3349 158.43 32.7861 158.43 30.9557C158.43 29.6604 158.571 28.3228 158.853 26.943C159.162 25.5632 159.627 24.296 160.247 23.1414C160.894 21.9869 161.725 21.0436 162.738 20.3114C163.781 19.5511 165.034 19.171 166.498 19.171C166.836 19.171 167.202 19.1991 167.596 19.2554C167.99 19.2836 168.37 19.3822 168.736 19.5511C169.102 19.6919 169.44 19.9172 169.751 20.2269C170.06 20.5085 170.3 20.9028 170.469 21.4096V19.3822H176.551ZM170.469 23.4371C170.44 23.3245 170.384 23.1837 170.3 23.0147C170.215 22.8176 170.088 22.6346 169.919 22.4656C169.751 22.2685 169.539 22.1136 169.286 22.001C169.032 21.8602 168.736 21.7898 168.399 21.7898C167.723 21.7898 167.132 22.0855 166.625 22.6768C166.146 23.24 165.752 23.9581 165.442 24.831C165.16 25.6758 164.949 26.6192 164.808 27.6611C164.668 28.6748 164.597 29.6463 164.597 30.5756C164.597 32.068 164.71 33.2366 164.935 34.0814C165.16 34.898 165.428 35.5035 165.737 35.8977C166.075 36.2638 166.427 36.4891 166.794 36.5736C167.16 36.6299 167.469 36.658 167.723 36.658C168.033 36.658 168.342 36.5877 168.652 36.4468C168.99 36.2779 169.286 36.0385 169.539 35.7288C169.821 35.419 170.046 35.0389 170.215 34.5883C170.384 34.1096 170.469 33.5605 170.469 32.941V23.4371Z" fill="#008000"/>
<path d="M187.464 12.7084V19.3822H190.041V21.0718H187.464V33.7436C187.464 34.9263 187.619 35.7147 187.929 36.109C188.266 36.475 188.844 36.6581 189.661 36.6581C190.477 36.6581 191.153 36.3061 191.688 35.6021C192.251 34.8981 192.575 34.0111 192.659 32.941H194.433C194.208 34.6588 193.814 36.0386 193.251 37.0805C192.687 38.0942 192.054 38.8827 191.35 39.4459C190.646 39.9809 189.928 40.3329 189.196 40.5019C188.464 40.6708 187.816 40.7553 187.253 40.7553C185.084 40.7553 183.564 40.164 182.691 38.9812C181.818 37.7704 181.381 36.1793 181.381 34.2082V21.0718H180.03V19.3822H181.381V13.5532L187.464 12.7084Z" fill="#008000"/>
<path d="M203.371 27.7033C203.371 26.0137 203.188 24.8169 202.822 24.113C202.456 23.409 201.921 23.057 201.217 23.057C200.795 23.057 200.429 23.1696 200.119 23.3949C199.837 23.6202 199.598 23.9159 199.401 24.2819C199.204 24.648 199.049 25.0704 198.937 25.5491C198.824 25.9997 198.754 26.4643 198.725 26.943V40.5019H192.643V11.7791L198.725 10.9343V21.5786C199.373 20.593 200.105 19.9595 200.921 19.6779C201.738 19.3681 202.513 19.2132 203.245 19.2132C204.033 19.2132 204.78 19.34 205.484 19.5934C206.216 19.8468 206.849 20.2833 207.384 20.9028C207.948 21.4941 208.384 22.2967 208.694 23.3104C209.004 24.296 209.158 25.521 209.158 26.9852C209.158 27.3513 209.144 27.816 209.116 28.3791C209.116 28.9142 209.102 29.4633 209.074 30.0265C209.046 30.5897 209.018 31.1388 208.989 31.6738C208.989 32.2088 208.989 32.6594 208.989 33.0255C208.989 34.2363 209.13 35.1515 209.412 35.771C209.721 36.3624 210.313 36.6581 211.186 36.6581C211.665 36.6581 212.059 36.5736 212.369 36.4046C212.678 36.2075 212.932 35.94 213.129 35.6021C213.326 35.2642 213.481 34.8699 213.593 34.4194C213.734 33.9688 213.861 33.476 213.973 32.941H215.748C215.522 34.6306 215.185 35.9963 214.734 37.0382C214.283 38.0519 213.762 38.8404 213.171 39.4036C212.608 39.9386 212.003 40.3047 211.355 40.5019C210.707 40.6708 210.073 40.7552 209.454 40.7552C207.286 40.7552 205.709 40.0372 204.723 38.6011C203.766 37.1649 203.287 35.2501 203.287 32.8565C203.287 32.6031 203.287 32.2511 203.287 31.8005C203.315 31.3218 203.329 30.829 203.329 30.3221C203.329 29.8153 203.329 29.3225 203.329 28.8438C203.357 28.3651 203.371 27.9849 203.371 27.7033Z" fill="#008000"/>
<path d="M223.05 36.7425C223.867 36.7425 224.683 36.5172 225.5 36.0667C226.317 35.6162 227.006 35.0952 227.569 34.5038C227.569 35.7147 227.415 36.7284 227.105 37.5451C226.823 38.3335 226.415 38.9671 225.88 39.4458C225.345 39.9246 224.711 40.2625 223.979 40.4596C223.275 40.6567 222.487 40.7552 221.614 40.7552C220.403 40.7552 219.277 40.5863 218.235 40.2484C217.221 39.8823 216.348 39.305 215.616 38.5166C214.884 37.7281 214.306 36.7144 213.884 35.4753C213.462 34.2363 213.25 32.7298 213.25 30.9557C213.25 29.773 213.377 28.4918 213.631 27.1119C213.912 25.7321 214.377 24.4649 215.025 23.3104C215.672 22.1277 216.545 21.1421 217.643 20.3537C218.77 19.5652 220.178 19.171 221.867 19.171C223.275 19.171 224.359 19.3822 225.12 19.8046C225.88 20.1988 226.443 20.6916 226.809 21.2829C227.175 21.8461 227.386 22.4375 227.443 23.057C227.499 23.6483 227.527 24.127 227.527 24.4931C227.527 25.5069 227.316 26.4643 226.894 27.3654C226.471 28.2383 225.894 29.0127 225.162 29.6885C224.43 30.3362 223.571 30.8712 222.585 31.2936C221.628 31.6879 220.586 31.9131 219.46 31.9695C219.6 33.7998 220.009 35.053 220.684 35.7288C221.36 36.4046 222.149 36.7425 223.05 36.7425ZM224.233 24.2397C224.233 23.1696 224.064 22.4375 223.726 22.0432C223.416 21.6209 223.064 21.4096 222.67 21.4096C222.163 21.4096 221.713 21.6772 221.318 22.2122C220.952 22.7472 220.628 23.4371 220.347 24.2819C220.065 25.0985 219.84 26.0137 219.671 27.0275C219.53 28.0412 219.446 29.0127 219.417 29.942C220.121 29.8857 220.769 29.7026 221.36 29.3929C221.952 29.0549 222.459 28.6326 222.881 28.1257C223.303 27.6188 223.627 27.0275 223.852 26.3516C224.106 25.6758 224.233 24.9718 224.233 24.2397Z" fill="#008000"/>
</g>
<defs>
<clipPath id="clip0_131_79">
<rect width="227.67" height="50" fill="white"/>
</clipPath>
</defs>
</svg>
